<svg class="svg-logo-mobile" height="176.1px" style="overflow: visible;" viewBox="0 0 968.8 176.1" width="968.8px" x="0px" xml:space="preserve" xmlns="http://www.w3.org/2000/svg" xmlns:xlink="http://www.w3.org/1999/xlink" y="0px"><g><path d="M137.8,62c-1.6,0-3.3,0-4.9,0.1c-1.6,0.1-3.2,0.1-4.8,0.1c-1,0-1.5-0.4-1.5-1.3c0-0.3,0-0.6,0.1-0.9
		s0.3-0.5,0.6-0.7c1-0.1,2-0.2,3.2-0.4s2.2-0.5,3.2-1c0.2-0.1,0.4-0.3,0.5-0.6c0.1-0.3,0.3-0.7,0.4-1.1c0.1-0.4,0.2-0.8,0.3-1.2
		c0.1-0.4,0.1-0.7,0.1-1v-1.4v-0.6c0-0.2,0-0.7,0.1-1.3c0.1-0.6,0.1-1.1,0.1-1.3c0-0.6,0-1.8,0-3.4c0-1.6,0-3.3,0-5.2
		c0-1.8,0-3.5,0-5.1c0-1.6,0-2.7,0-3.4c0-1.1,0-2.6,0-4.5c0-1.9,0-3.7,0-5.5c0-1.8,0-3.4,0-4.8c0-1.4,0-2.1,0-2.3c0-0.3,0-1,0-1.8
		c0-0.9,0-1.9,0-2.9c0-1-0.1-1.9-0.1-2.8c0-0.9-0.1-1.5-0.1-1.8c-0.1-0.3-0.4-0.5-0.8-0.7c-0.4-0.2-0.9-0.3-1.4-0.4
		c-0.5-0.1-1-0.2-1.5-0.2c-0.5,0-0.8-0.1-1.1-0.1c-0.1,0-0.4,0-0.9,0c-0.4,0-0.9,0-1.4-0.1c-0.5,0-0.9-0.1-1.3-0.1
		c-0.4,0-0.7-0.1-0.8-0.1c-0.1,0-0.3-0.2-0.5-0.5c-0.2-0.3-0.4-0.4-0.4-0.5V3c0-0.4,0.1-0.7,0.3-0.9c0.2-0.1,0.5-0.3,0.9-0.4
		c0.3,0,1,0,1.9-0.1c0.9-0.1,1.9-0.1,2.9-0.2c1,0,2-0.1,2.9-0.2c0.9-0.1,1.5-0.1,1.9-0.1c0.2,0,0.7,0,1.2,0c0.6,0,1,0,1.4,0
		c0.6-0.1,1.1-0.2,1.5-0.2c0.4,0,1.3,0,2.5,0c1.3,0,2.7,0,4.4,0c1.6,0,3.4,0.1,5.3,0.1c1.9,0,3.7,0.1,5.4,0.1c0.1,0,0.5,0.1,1.1,0.3
		c0.6,0.1,0.9,0.2,1.1,0.3c0.1,0,0.4,0.1,0.8,0.2c0.4,0.1,0.7,0.1,0.8,0.2c0.1,0,0.3,0.1,0.5,0.3c0.2,0.2,0.5,0.4,0.7,0.6
		c0.3,0.2,0.5,0.4,0.7,0.6c0.2,0.2,0.3,0.3,0.4,0.4c0,0.1,0.1,0.2,0.2,0.2c0.1,0,0.3,0.1,0.4,0.1c1,0.4,1.7,0.8,2.3,1.2
		c0.6,0.4,1.1,0.9,1.4,1.5c0.4,0.6,0.6,1.2,0.8,1.9c0.2,0.7,0.4,1.6,0.6,2.5c0.1,0.5,0.2,1.1,0.4,1.7c0.2,0.6,0.3,1.2,0.3,1.7
		c0,0.1,0,0.2,0,0.3c0,0.1,0,0.2,0,0.2c-0.1,1.3-0.3,2.5-0.6,3.8c-0.3,1.3-0.6,2.5-0.9,3.7c-0.1,0.1-0.2,0.2-0.3,0.4
		s-0.1,0.2-0.2,0.3c0,0-0.2,0.2-0.4,0.4c-0.2,0.2-0.4,0.5-0.6,0.7c-0.2,0.2-0.4,0.5-0.6,0.7c-0.2,0.2-0.3,0.4-0.3,0.4
		c0,0,0,0.1-0.1,0.1c0,0-0.1,0.1-0.1,0.2l-0.1,0.3c-0.4,0.8-0.9,1.3-1.6,1.7c-0.7,0.3-1.4,0.7-2.2,1c0,0.1-0.3,0.2-0.7,0.2
		c-0.4,0-0.6,0.1-0.7,0.2c-0.1,0-0.3,0.1-0.7,0.4c-0.3,0.3-0.6,0.4-0.7,0.5c-0.6,0.4-1.5,0.7-2.5,0.9c-1.1,0.2-1.9,0.4-2.6,0.4h-8.6
		c-0.9,0.4-1.3,0.9-1.4,1.7c-0.1,0.7-0.1,1.5-0.2,2.2c0,0.1,0,0.3,0,0.6c0,0.3,0,0.6-0.1,0.9c0,0.3,0,0.7-0.1,1c0,0.3,0,0.5,0,0.5
		v0.7c0,0.3,0,0.5,0,0.7c0,0.2,0.1,0.4,0.2,0.7c0,0.2,0,0.7,0,1.3c0,0.6,0,1,0,1.2c0,0.9,0,1.8-0.1,2.6c-0.1,0.9-0.1,1.7-0.1,2.5
		v0.1c0,0,0,0.2,0,0.4c0,0.2,0,0.4,0,0.4c0.1,1.6,0.2,3.1,0.3,4.4c0.1,1.3,0.4,2.6,0.9,3.9c0,0.1,0.2,0.3,0.5,0.5
		c0.3,0.2,0.6,0.4,0.9,0.5s0.7,0.3,1.1,0.4c0.3,0.1,0.6,0.2,0.7,0.2h1.7c0.7,0,1.4,0,2.1-0.1c0.7-0.1,1.4-0.1,2.1-0.1
		c0.4,0,0.9,0.3,1.4,0.8c0.5,0.5,0.7,1,0.7,1.4c0,0.2,0,0.5-0.1,0.7c0,0.2-0.3,0.4-0.7,0.6h-1.6H152c-0.2,0-0.5,0-0.9,0
		c-0.4,0-0.8-0.1-1.3-0.1c-0.4,0-0.8-0.1-1.2-0.1c-0.4,0-0.6-0.1-0.8-0.1c-0.1,0-0.3,0-0.7-0.1c-0.3-0.1-0.6-0.1-0.7-0.1h-0.3
		c-0.7,0-1.3,0.1-2,0.1c-0.6,0-1.3,0.1-2,0.2c-0.2,0-0.6,0-1.2-0.1c-0.6-0.1-1.1-0.1-1.3-0.1H137.8z M144.3,28.5
		c0.3,0.4,0.7,0.7,1.3,0.8c0.6,0.1,1.1,0.2,1.6,0.2h0.3c0,0,0.2-0.1,0.4-0.1c0.2,0,0.4-0.1,0.6-0.2c0.2-0.1,0.4-0.1,0.6-0.2
		c0.2,0,0.3-0.1,0.4-0.1c0.6-0.2,1.3-0.3,2.1-0.4c0.8-0.1,1.5-0.3,2-0.6c0,0,0.2-0.2,0.5-0.3c0.3-0.2,0.6-0.4,0.9-0.6
		c0.3-0.2,0.6-0.4,0.9-0.6c0.3-0.2,0.5-0.3,0.7-0.4c0.1,0,0.2-0.2,0.4-0.3c0.1-0.2,0.2-0.3,0.3-0.3c0.2-0.4,0.5-0.8,0.8-1.3
		c0.3-0.5,0.5-0.9,0.8-1.3c0.1-0.1,0.2-0.3,0.3-0.4l0.4-0.4c0.1,0,0.2-0.2,0.2-0.7c0-0.5,0.1-0.8,0.1-0.9c0.2-1.1,0.5-2.2,0.7-3.3
		c0.2-1.1,0.3-2.2,0.3-3.4v-2.4c-0.5-0.4-0.8-0.8-1-1.4c-0.2-0.5-0.5-1-0.9-1.6c-0.1-0.1-0.3-0.3-0.5-0.6c-0.3-0.3-0.6-0.7-0.9-1
		c-0.3-0.3-0.6-0.7-0.9-1s-0.5-0.5-0.7-0.7c-0.4-0.1-0.9-0.2-1.5-0.3c-0.6-0.1-1.2-0.2-1.6-0.3C152,4.2,151.5,4,151,3.8
		s-1.1-0.3-1.7-0.3c-0.5,0-1,0-1.6,0.1c-0.6,0-1.1,0.2-1.4,0.5c-0.7,0.5-1.2,1-1.5,1.5c-0.3,0.5-0.5,1-0.6,1.5
		C144,7.6,144,8.2,144,8.8c0,0.6,0,1.3-0.1,2.1c0,0.1,0,0.4,0,0.8c0,0.4-0.1,0.9-0.1,1.3c0,0.5-0.1,0.9-0.1,1.3c0,0.4,0,0.7,0,0.8
		c0,0.3,0,0.8,0,1.5c0,0.6,0,1.3,0,2.1c0,0.7,0,1.5,0,2.2c0,0.7,0,1.3,0,1.7c0,1,0,1.9,0.1,2.8C143.8,26.3,144,27.3,144.3,28.5z" fill="currentColor"></path> <path d="M248.5,61.9c0-0.8,0.3-1.4,0.9-1.8c0.6-0.3,1.4-0.6,2.2-0.8c0.8-0.2,1.6-0.5,2.4-0.7c0.8-0.3,1.4-0.7,1.7-1.4
		c0.3-0.7,0.5-1.6,0.6-2.8c0.1-1.2,0.1-2.1,0.1-2.9c0-2.5-0.1-5-0.2-7.6c-0.1-2.5-0.2-5.1-0.2-7.8v-4c0-0.2,0-0.6,0.1-1.3
		c0.1-0.6,0.2-1,0.3-1.1c0.1-2.3,0.2-4.6,0.2-6.9c0-2.3,0.1-4.5,0.1-6.9V9.2c-0.1-0.4-0.2-0.8-0.3-1.1c0-0.4-0.1-0.7-0.1-1.1
		c0-0.5,0-0.9,0.1-1.2c-0.4-0.6-1-0.9-1.9-1c-0.8-0.1-1.7-0.1-2.6-0.1c-0.9,0-1.6-0.1-2.3-0.3c-0.7-0.2-1-0.7-1-1.5
		c0-1.2,0.5-1.9,1.6-2.1h3.6h3.5c0.1,0,0.4,0,0.8,0.1c0.4,0.1,0.7,0.2,0.7,0.3h1.5c1.8,0,3.7-0.1,5.6-0.4c1.9-0.2,3.8-0.4,5.7-0.4
		c0.3,0,0.6,0,1.1,0c0.4,0,0.8,0.1,1.2,0.2c0.4,0.1,0.7,0.3,1,0.5s0.4,0.6,0.4,1c0,0.6-0.2,1.2-0.7,1.7c-0.5,0.5-1,0.8-1.5,0.9
		c-1.3,0.2-2.6,0.4-3.7,0.4c-1.2,0-2.4,0.3-3.7,0.8c0,0.3,0,0.8-0.1,1.4c-0.1,0.6-0.1,1.3-0.2,2.1c-0.1,0.7-0.1,1.4-0.2,2.1
		c-0.1,0.6-0.1,1.1-0.2,1.3v6.3v6.3c0.2,0.4,0.3,0.8,0.3,1.2c0,0.4,0.1,0.8,0.1,1.2c0,0.4,0.1,0.8,0.3,1.1c0.1,0.3,0.5,0.6,0.9,0.8
		h1.8h1.7c0,0,0.2,0,0.4,0c0.2,0,0.5-0.1,0.7-0.1c0.3,0,0.5-0.1,0.7-0.1c0.2,0,0.4,0,0.4,0h7c0.1,0,0.3,0,0.6,0
		c0.3,0,0.6-0.1,0.9-0.1c0.3,0,0.6-0.1,0.9-0.1c0.3,0,0.5,0,0.6,0h0.2h0.1c0,0,0.1,0,0.3,0.1c0.1,0.1,0.2,0.1,0.3,0.2h12.1
		c0.2,0,0.5-0.2,0.7-0.6c0.2-0.4,0.3-0.6,0.4-0.8c0-0.2,0-0.5,0.1-0.9c0.1-0.4,0.1-0.6,0.1-0.7c0-1,0.1-2,0.1-3.2c0-1.1,0-2.2,0-3.3
		c0-1.1,0-2.1,0-3c0-0.9,0-1.7,0.1-2.3c0-0.1,0-0.3,0.1-0.7c0-0.3,0.1-0.6,0.1-0.9c0-1.3-0.1-2.6-0.3-3.9c-0.2-1.3-0.3-2.7-0.4-4
		c-0.3-0.4-0.6-0.7-1.1-0.8c-0.4-0.1-0.8-0.3-1.2-0.4c-0.5,0-1.1,0.1-1.6,0.1c-0.6,0-1.1,0-1.6,0c-0.6,0-1.3,0-1.9,0
		c-0.6,0-1.3-0.1-2-0.1c-0.1,0-0.3-0.1-0.5-0.4c-0.2-0.3-0.4-0.5-0.5-0.6c0,0-0.1-0.1-0.1-0.2s0-0.3,0-0.4c0-0.8,0.2-1.4,0.7-1.7
		c0.5-0.3,1-0.4,1.7-0.4c2.3,0,4.6,0.1,6.8,0.4c2.2,0.2,4.5,0.4,6.8,0.4h3.9c0.8-0.4,1.7-0.6,2.6-0.7c0.9,0,1.8-0.1,2.7-0.1h1.7
		c0.6,0.3,1,0.5,1.1,0.7c0.2,0.2,0.3,0.6,0.3,1.1v0.8c-0.1,0-0.3,0.2-0.7,0.5c-0.4,0.3-0.7,0.4-0.9,0.5h-2.3c-0.5,0-1.2,0.2-2,0.3
		c-0.8,0.2-1.5,0.4-1.9,0.6c-0.2,0.1-0.3,0.3-0.4,0.7c-0.1,0.3-0.1,0.7-0.2,1.2c0,0.4-0.1,0.9-0.1,1.3c0,0.4-0.1,0.8-0.3,1.1
		c0,0.3,0,0.9,0,1.7c0,0.8-0.1,1.6-0.1,2.4c0,0.9-0.1,1.7-0.1,2.4c0,0.8,0,1.3,0,1.7v2.1c0,0.4,0,0.8,0,1.1c0,0.2,0,0.6,0,1
		c0,0.4,0,1.1,0.1,1.9c0,0.8,0.1,2,0.2,3.5c0,0.6,0.1,1.4,0.1,2.4c0,1,0,1.7,0,2.2c0,0.8,0,1.7,0,2.5c0,0.8-0.1,1.6-0.1,2.4
		c0,0.1-0.1,0.6-0.1,1.2c0,0.7-0.1,1.1-0.1,1.4V40v0.7c0,0.1,0,0.5,0.1,1c0,0.5,0.1,1.1,0.1,1.7c0,0.6,0,1.1,0.1,1.7
		c0,0.5,0,0.8,0,1v0.1c0,0.7,0,1.4-0.1,2.1c-0.1,0.7-0.1,1.4-0.1,2v2c0,0.1,0,0.4,0,0.8c0,0.4,0.1,0.9,0.1,1.4
		c0,0.5,0.1,0.9,0.1,1.4c0,0.4,0,0.7,0,0.9c0.2,0.3,0.5,0.7,0.8,1.1c0.3,0.4,0.7,0.7,1.1,0.8c0,0,0.2,0.1,0.5,0.1c0.2,0,0.5,0,0.7,0
		c0.2,0,0.4,0,0.4,0c0.2,0,0.6,0.1,1,0.1c0.4,0,0.9,0.1,1.3,0.2c0.4,0.1,0.8,0.1,1.2,0.2s0.6,0.1,0.7,0.1c0.1,0,0.3,0.1,0.6,0.3
		c0.3,0.2,0.5,0.3,0.6,0.4c0.1,0,0.2,0.1,0.4,0.3c0.2,0.1,0.3,0.2,0.3,0.3c0,0,0.1,0.1,0.1,0.1c0,0-0.1,0-0.1,0.1V61
		c-0.1,0-0.2,0.1-0.3,0.3c-0.1,0.1-0.2,0.3-0.3,0.4l-0.7,0.1c-0.2,0-0.5,0.1-0.7,0.1c-0.2,0-0.3,0-0.4,0c-0.1,0-0.3,0-0.6,0.1
		c-0.3,0-0.6,0.1-1,0.1c-0.4,0-0.7,0.1-1.1,0.1c-0.4,0-0.7,0.1-0.9,0.1h-0.1h-0.1c-0.2,0-0.5,0-0.9-0.1c-0.3,0-0.7-0.1-1-0.1
		c-0.3,0-0.6-0.1-0.9-0.1c-0.3,0-0.4,0-0.5,0c-0.1,0-0.2,0-0.3-0.1c-0.1,0-0.2-0.1-0.2-0.1c-0.4-0.1-0.9-0.2-1.6-0.2
		c-0.7,0-1-0.1-1.1-0.1c0,0-0.2,0-0.4,0c-0.2,0-0.5,0-0.7,0.1c-0.3,0-0.5,0-0.7,0.1c-0.2,0-0.4,0.1-0.4,0.1c-0.2,0-0.6,0.1-1.1,0.1
		c-0.5,0-0.8,0.1-0.9,0.1h-2.2c-0.1,0-0.3,0.1-0.5,0.2c-0.3,0.1-0.4,0.2-0.5,0.2c-1,0.2-1.7,0.3-2.3,0.3c-0.6,0-1.3,0-2.2,0
		c-0.1,0-0.5,0-1,0c-0.5,0-0.8,0-1,0c-0.1-0.1-0.3-0.2-0.5-0.4c-0.2-0.2-0.4-0.3-0.4-0.4V61c0-0.8,0.3-1.3,0.8-1.5
		c0.6-0.2,1.1-0.4,1.8-0.5c0.2-0.1,0.7-0.2,1.3-0.2c0.6,0,1.1-0.1,1.3-0.2c0.1,0,0.3,0,0.7,0c0.3,0,0.7,0,1.1,0c0.4,0,0.6,0,0.7-0.1
		c0.2,0,0.4-0.2,0.8-0.5c0.3-0.3,0.5-0.6,0.6-0.7c0.1-0.1,0.2-0.5,0.4-1.1c0.1-0.7,0.2-1.2,0.3-1.5v-0.4v-0.4c0,0,0-0.2-0.1-0.4
		c0-0.2-0.1-0.5-0.1-0.7c0-0.2-0.1-0.5-0.1-0.7c0-0.2-0.1-0.4-0.1-0.4c0-0.1,0.1-0.4,0.2-0.8c0.1-0.4,0.2-0.7,0.3-0.8v-5.4v-5.4
		c0-0.2,0-0.7-0.1-1.4c-0.1-0.7-0.2-1.3-0.3-1.6c0-0.1-0.1-0.5-0.3-1c-0.2-0.5-0.4-0.8-0.5-0.9c-0.3,0-0.8-0.1-1.4-0.3
		c-0.7-0.1-1.1-0.2-1.2-0.2c-0.1,0-0.3,0-0.5,0c-0.2,0-0.5,0-0.8,0.1c-0.3,0-0.6,0-0.8,0.1c-0.3,0-0.4,0-0.5,0
		c-0.3,0-0.8,0.1-1.6,0.1c-0.8,0-1.6,0-2.5,0s-1.7,0-2.5,0c-0.8,0-1.3-0.1-1.6-0.1l-0.7,0.3h-3.9h-5.7c-0.1,0-0.3,0-0.5,0
		c-0.3,0-0.6,0-0.9-0.1c-0.3,0-0.7-0.1-0.9-0.1c-0.3,0-0.5-0.1-0.6-0.1h-1.4c-0.4,0-0.9-0.1-1.5-0.2h-0.4c-0.3,0-0.5,0.1-0.6,0.4
		c-0.1,0.3-0.2,0.6-0.3,0.8c-0.2,1.4-0.5,2.9-0.7,4.4c-0.2,1.6-0.3,3.1-0.3,4.5v0.5c0,0,0,0.2,0,0.4c0,0.2,0,0.4,0.1,0.7
		c0,0.3,0.1,0.5,0.1,0.7c0,0.2,0.1,0.4,0.1,0.4c0,0.1,0,0.2,0,0.4c0,0.2,0,0.4,0,0.7c0,0.3,0,0.6,0.1,0.8c0.1,0.2,0.1,0.5,0.1,0.9
		v0.1c0,0.1,0,0.3-0.1,0.5c-0.1,0.2-0.1,0.4-0.1,0.4v5.6c0,0.1,0.1,0.3,0.4,0.6c0.2,0.3,0.4,0.6,0.6,0.7c0.2,0.3,0.5,0.5,0.8,0.5
		c0.3,0,0.6,0.1,1,0.1c0.3,0.1,0.6,0.2,0.8,0.3c0.2,0.1,0.5,0.1,0.7,0.1h0.2c0.2,0,0.7,0.1,1.3,0.3c0.7,0.1,1.1,0.2,1.2,0.3
		c0.1,0,0.2,0,0.3,0.1c0.1,0.1,0.2,0.1,0.3,0.2c0.1,0,0.2,0.1,0.3,0.1c0.1,0,0.2,0.1,0.4,0.1c0,0,0.1,0,0.3,0.1
		c0.1,0,0.2,0.1,0.3,0.1h0.3c0.4,0,0.8,0.1,1.2,0.4c0.4,0.2,0.6,0.6,0.6,1c0,0.4-0.1,0.7-0.3,1c-0.2,0.2-0.4,0.5-0.7,0.7
		c-0.9,0.2-1.6,0.3-2.3,0.3c-0.7,0-1.4,0-2.2,0h-1.6c-0.6,0-1.3-0.1-2.1-0.3c-0.8-0.2-1.6-0.3-2.4-0.3c-0.1,0-0.3,0-0.6,0
		c-0.3,0-0.6,0-1-0.1c-0.4,0-0.8,0-1.1-0.1c-0.4,0-0.6,0-0.8,0c-0.1,0-0.5,0-1.1,0.1c-0.6,0-1,0.1-1.1,0.1c-1.3,0.2-2.6,0.4-4,0.5
		c-1.4,0.1-2.8,0.2-4.1,0.2H249c-0.2-0.1-0.4-0.3-0.4-0.4C248.6,62.3,248.5,62.1,248.5,61.9z" fill="currentColor"></path> <path d="M415.5,62c-0.1,0-0.2,0-0.4-0.1c-0.2-0.1-0.3-0.1-0.3-0.1c0,0-0.2,0-0.5-0.1c-0.3-0.1-0.6-0.2-0.9-0.3
		c-0.3-0.1-0.6-0.2-0.9-0.3c-0.3-0.1-0.5-0.1-0.5-0.1c-0.7-0.3-1.2-0.7-1.6-1c-0.4-0.3-0.9-0.7-1.6-1.1c-0.1,0-0.4-0.2-0.9-0.4
		c-0.5-0.2-0.8-0.4-0.9-0.5c-1.1-0.5-2.2-1.2-3.3-2c-1.1-0.9-2.1-1.8-3.1-2.9c-0.9-1.1-1.8-2.2-2.5-3.3c-0.8-1.2-1.3-2.3-1.8-3.5
		c0,0,0-0.2-0.1-0.4c0-0.2-0.1-0.5-0.2-0.7c-0.1-0.3-0.1-0.5-0.2-0.7c0-0.2-0.1-0.4-0.1-0.4c0,0-0.1-0.2-0.3-0.5
		c-0.2-0.3-0.3-0.4-0.4-0.4c0,0,0-0.3-0.1-0.6s-0.1-0.6-0.1-0.7c0,0-0.2-0.2-0.3-0.6c-0.2-0.3-0.3-0.6-0.3-0.7
		c-0.1-0.1-0.2-0.3-0.3-0.7c-0.1-0.4-0.1-0.7-0.1-0.9c0-0.3-0.1-0.8-0.1-1.4c0-0.6-0.1-1.3-0.2-2c-0.1-0.7-0.1-1.3-0.2-1.8
		c0-0.5-0.1-0.9-0.1-1v-2.4c0-1.7,0.1-3.4,0.4-5c0.3-1.6,0.7-3.3,1.2-5c0.1-0.3,0.2-0.5,0.4-0.7c0.2-0.2,0.4-0.5,0.5-0.8
		c0.1-0.3,0.2-0.7,0.4-1.2c0.1-0.5,0.3-1.1,0.4-1.6c0.1-0.6,0.3-1.1,0.5-1.6c0.2-0.5,0.4-0.8,0.6-1l6.5-6.5c0.7-0.3,1.3-0.7,2-1.3
		c0.6-0.6,1.3-1.2,1.9-1.7c0,0,0.1,0,0.3-0.1c0.1,0,0.2-0.1,0.3-0.1c0.8-0.4,1.7-0.8,2.5-1.2c0.9-0.4,1.7-0.7,2.5-0.8
		c0,0,0.1,0,0.2-0.1c0.1,0,0.2-0.1,0.3-0.1c0.2,0,0.5,0,0.7-0.1c0.2,0,0.4-0.1,0.4-0.1c0.1,0,0.5,0,1.2-0.1c0.7-0.1,1.2-0.2,1.5-0.3
		c0-0.1,0.1-0.2,0.4-0.2c0.3,0,0.4,0,0.5,0c0,0,0.2,0,0.4,0c0.2,0,0.4,0,0.7,0c0.2,0,0.5,0,0.7,0c0.2,0,0.4,0,0.4,0
		c0,0,0.2,0,0.4-0.1c0.2-0.1,0.4-0.1,0.5-0.1h0.4c0.8,0,1.8,0.1,3,0.2c1.2,0.1,2.3,0.3,3.5,0.5c1.2,0.2,2.3,0.5,3.5,0.9
		c1.1,0.4,2,0.8,2.8,1.3c0,0,0.2,0.2,0.5,0.5c0.3,0.3,0.4,0.5,0.4,0.5c0.6,0.5,1.2,0.8,1.9,0.9c0.6,0.1,1.2,0.5,1.7,1
		c1,1,1.9,1.9,2.7,2.8c0.8,0.9,1.5,1.8,2.1,2.8c0.7,1,1.3,2,1.8,3c0.6,1.1,1.1,2.2,1.7,3.5c0.1,0.1,0.3,0.5,0.5,1.1
		c0.2,0.6,0.4,1,0.5,1.1c0,0.1,0,0.2,0.1,0.3c0,0.1,0.1,0.2,0.1,0.2c0.3,0.5,0.5,1,0.6,1.6c0.1,0.6,0.1,1.2,0.1,1.8
		c0,0.6,0,1.3,0,1.9c0,0.6,0.2,1.2,0.4,1.7c0,0.1,0.1,0.4,0.1,0.7c0,0.3,0,0.7,0,1.1c0,0.4,0,0.8,0,1.1c0,0.3,0,0.5,0,0.7
		c0,3.2-0.2,6.4-0.7,9.5c0,0,0,0.2-0.1,0.4c-0.1,0.2-0.2,0.4-0.3,0.5c0,0.1-0.1,0.3-0.3,0.7c-0.2,0.4-0.3,0.6-0.3,0.6
		c0,0-0.1,0.2-0.1,0.4c0,0.2-0.1,0.5-0.1,0.7c0,0.3-0.1,0.5-0.1,0.7c0,0.2,0,0.4,0,0.4c-0.2,0.7-0.5,1.3-1,1.8
		c-0.5,0.5-0.9,1.1-1.2,1.8c-0.4,0.6-0.8,1.2-1.1,1.8c-0.4,0.6-0.8,1.2-1.2,1.7c0,0.1-0.1,0.2-0.3,0.4c-0.1,0.2-0.2,0.3-0.3,0.3
		c-1.1,0.8-2.1,1.7-3.1,2.5c-0.9,0.9-1.9,1.6-3.1,2.3c-0.3,0.2-0.7,0.5-1,0.8c-0.3,0.3-0.6,0.6-0.9,0.8c-0.1,0-0.3,0.1-0.7,0.3
		s-0.7,0.3-1.1,0.5c-0.4,0.2-0.8,0.3-1.1,0.5c-0.4,0.2-0.6,0.3-0.6,0.3c0,0-0.2,0-0.4,0.1c-0.1,0-0.2,0.1-0.2,0.1
		c-0.1,0-0.3,0.1-0.6,0.1c-0.3,0-0.6,0.1-0.9,0.1c-0.3,0-0.6,0.1-0.9,0.1c-0.3,0-0.5,0-0.5,0c0,0.1-0.2,0.2-0.4,0.2
		c-0.2,0-0.4,0-0.5,0c-0.7,0.2-1.4,0.4-2.2,0.6c-0.8,0.1-1.5,0.2-2.2,0.2c-0.3,0-0.8,0-1.5-0.1c-0.7,0-1-0.1-1.1-0.1
		c-0.2,0-0.5,0-1-0.1c-0.5,0-0.9-0.1-1.5-0.1c-0.5,0-1-0.1-1.5-0.2C415.9,62.1,415.6,62.1,415.5,62z M413,55.8
		c0.2,0.2,0.8,0.5,1.6,0.9c0.8,0.4,1.3,0.7,1.6,0.9c0,0,0.1,0.2,0.3,0.3c0.1,0.2,0.2,0.3,0.3,0.3c0.1,0,0.2,0.1,0.4,0.2
		c0.2,0.1,0.3,0.1,0.3,0.2c0,0,0.3,0,0.6,0.1s0.6,0.1,0.7,0.1c0.1,0.1,0.3,0.2,0.6,0.4c0.3,0.2,0.5,0.3,0.5,0.3c0.1,0,0.2,0,0.4,0
		c0.2,0,0.3,0,0.4,0c0.1,0,0.3,0,0.5,0c0.2,0,0.4,0,0.5,0c0,0,0.3,0,0.7-0.1c0.4-0.1,0.7-0.1,0.9-0.1c0.6-0.1,1.2-0.1,1.8-0.1
		c0.6,0,1.2,0,1.7-0.1c0.6-0.1,1.1-0.2,1.6-0.4c0.5-0.2,1-0.5,1.5-1c0-0.1,0.2-0.3,0.5-0.7c0.3-0.4,0.4-0.6,0.4-0.6
		c0.1-0.1,0.3-0.3,0.7-0.6c0.3-0.3,0.7-0.7,1.1-1s0.7-0.7,1-1c0.3-0.3,0.5-0.5,0.6-0.6c0.4-0.5,0.8-1.1,1.1-1.8s0.6-1.3,1-1.8
		c0.1-0.1,0.2-0.3,0.4-0.5c0.2-0.2,0.3-0.4,0.3-0.4c1.1-2.3,2-4.5,2.8-6.6c0.7-2.1,1.1-4.4,1.1-7c0-1.8-0.1-3.8-0.4-6
		c-0.2-2.3-0.6-4.5-1.2-6.8c-0.5-2.3-1.2-4.5-2-6.6c-0.8-2.1-1.8-3.8-3.1-5.3c-0.1,0-0.2-0.1-0.4-0.3c-0.2-0.1-0.3-0.2-0.4-0.3
		c0-0.1,0-0.3-0.1-0.6c0-0.3-0.1-0.5-0.2-0.6l-1.2-1.3c-0.5-0.4-1.1-0.8-1.7-1.1c-0.6-0.3-1.2-0.6-1.9-0.8c-1.2-0.6-2.3-1.2-3.5-1.7
		c-1.2-0.5-2.4-0.7-3.9-0.7c-0.8,0-1.6,0.1-2.4,0.3c-0.8,0.2-1.6,0.5-2.4,0.7c-0.4,0.1-0.9,0.4-1.4,0.8c-0.5,0.4-1,0.8-1.5,1.2
		c-0.5,0.4-1,0.9-1.4,1.4c-0.5,0.5-0.9,0.8-1.2,1.1c0,0-0.2,0.1-0.3,0.3c-0.2,0.1-0.4,0.3-0.5,0.4c-0.2,0.1-0.4,0.3-0.5,0.4
		c-0.1,0.1-0.2,0.2-0.3,0.3c-0.2,0.4-0.5,0.9-0.7,1.3c-0.2,0.3-0.5,0.7-0.7,1.1c-0.2,0.4-0.4,0.7-0.5,0.9c-0.2,0.4-0.4,0.9-0.5,1.4
		c-0.1,0.5-0.2,1-0.5,1.5c-0.5,1.3-1.1,2.7-1.7,4.1c-0.6,1.4-1,2.8-1.2,4.3c0,0.1,0,0.3-0.1,0.7c0,0.4-0.1,0.8-0.1,1.2
		c0,0.4-0.1,0.9-0.1,1.3c0,0.4-0.1,0.7-0.1,0.8l-0.1,0.3l-0.1,0.3v1.5v1.4c0,0,0.1,0.1,0.2,0.1c0.1,0,0.1,0.1,0.1,0.2
		c0.4,0.9,0.6,1.9,0.7,2.9c0.1,1,0.2,2,0.3,2.9c0.2,1.3,0.5,2.6,0.9,3.8c0.4,1.2,0.8,2.4,1.2,3.8c0,0,0.1,0.3,0.2,0.6
		c0.1,0.4,0.2,0.6,0.2,0.7c0,0,0.2,0.2,0.5,0.6c0.3,0.3,0.4,0.6,0.5,0.7l0.1,0.6c0,0.2,0,0.3,0.1,0.4l0.1,0.1c0,0.1,0.2,0.3,0.4,0.6
		c0.2,0.3,0.4,0.6,0.7,0.9c0.2,0.3,0.5,0.6,0.7,0.9c0.2,0.3,0.4,0.5,0.4,0.5l0.3,0.7c0,0,0.2,0.2,0.4,0.4c0.2,0.2,0.5,0.5,0.7,0.7
		c0.2,0.3,0.5,0.5,0.7,0.7c0.2,0.2,0.4,0.3,0.4,0.4c0,0,0,0.1,0.1,0.3C412.8,55.7,412.9,55.8,413,55.8z" fill="currentColor"></path> <path d="M564.6,61.9c-0.2,0-0.6,0-1.1,0c-0.5,0-0.8,0-0.8,0l-1,0.4l-5.2-0.3h-11c-0.4-0.1-0.8-0.2-1.1-0.3
		c-0.3,0-0.6-0.1-1-0.1c-0.3,0-0.5,0-0.7,0c-0.2,0-0.4,0.1-0.7,0.3c-0.3,0-0.8,0-1.4,0c-0.7,0-1.3,0-2.1,0s-1.4,0-2.1,0
		c-0.7,0-1.1,0-1.3,0c-0.1,0-0.2,0-0.4,0c-0.2,0-0.4,0-0.7,0.1c-0.2,0-0.5,0-0.7,0.1c-0.2,0-0.4,0-0.4,0c-0.1,0-0.2,0.1-0.3,0.1
		h-0.4c-0.8,0-1.3-0.1-1.7-0.2s-0.7-0.6-1-1.4c-0.1,0-0.1,0-0.1-0.1v-0.1c0-0.4,0.3-0.9,0.8-1.5c0.5-0.5,1-0.8,1.5-0.8h4
		c0,0,0.2-0.2,0.5-0.5c0.3-0.3,0.6-0.6,0.8-0.8c0,0,0.1-0.2,0.2-0.3c0.1-0.2,0.1-0.3,0.1-0.4c0.3-1.7,0.5-3.3,0.6-5
		c0-1.7,0.1-3.4,0.1-5.2c0-0.2,0-0.8,0-1.8c0-1,0.1-2,0.1-3.1c0-1.1,0.1-2.1,0.1-3.1c0-1,0-1.6,0-1.8v-2.3c0-2.3,0-4.5-0.1-6.7
		c-0.1-2.2-0.1-4.4-0.1-6.6v-0.3c0-0.1,0-0.3,0-0.7c0-0.3,0.1-0.7,0.1-1.1c0-0.4,0.1-0.8,0.1-1.1c0-0.3,0-0.5,0-0.6
		c0-0.2,0-0.7,0-1.3c0-0.6,0.1-1.3,0.1-2c0-0.7,0.1-1.4,0.1-2c0-0.6,0-1.1,0-1.3c-0.1-0.4-0.2-0.9-0.3-1.4c0-0.5-0.1-0.9-0.1-1.4
		c-0.1-0.4-0.2-0.9-0.3-1.3c-0.1-0.4-0.4-0.7-0.8-1c-0.1,0-0.4,0-0.9,0c-0.4,0-0.9-0.1-1.3-0.1c-0.5,0-0.9-0.1-1.3-0.1
		c-0.4,0-0.7,0-0.8,0c-0.4,0-0.9-0.1-1.5-0.2c-0.5-0.1-1-0.3-1.5-0.5c-0.5-0.2-0.8-0.5-1.1-0.9c-0.3-0.4-0.4-0.8-0.4-1.4
		c0,0,0.1,0,0.1-0.1c0.1-0.1,0.2-0.1,0.3-0.1c0.7-0.4,1.3-0.7,1.8-0.8c0.5-0.1,1.2-0.2,2-0.2h0.2c0.1,0.1,0.2,0.2,0.3,0.2l0.3,0.1
		c1.4,0.1,2.8,0.2,4.2,0.2c1.4,0,2.8,0.1,4.2,0.1c1.2,0,2.3,0,3.4,0c1.1,0,2.2,0,3.3,0h9.3c0.1,0,0.3,0,0.5,0c0.3,0,0.5,0,0.8-0.1
		c0.3,0,0.6,0,0.8-0.1c0.3,0,0.5,0,0.6,0h0.3h0.3c0,0,0.2,0,0.5,0c0.3,0,0.7,0,1,0.1c0.4,0,0.7,0,1,0.1c0.3,0,0.5,0,0.6,0h5
		c0.2,0,0.6,0.1,1,0.1c0.4,0,0.9,0,1.3,0.1c0.4,0,0.8,0,1.1,0.1c0.3,0,0.5,0.1,0.5,0.1c0.1,0,0.4,0.1,1,0.4c0.6,0.3,1,0.6,1.3,0.8
		c0.3,0.2,0.5,0.6,0.7,1.2c0.2,0.6,0.3,1.3,0.4,2.1c0.1,0.8,0.2,1.5,0.3,2.3s0.1,1.3,0.2,1.7c0,0.1,0,0.4,0.1,0.7
		c0,0.3,0.1,0.7,0.1,1.1c0,0.4,0,0.8,0.1,1.1c0,0.3,0,0.6,0,0.7V15v1.2c-0.1,0.2-0.3,0.4-0.5,0.5c-0.2,0.1-0.5,0.1-0.7,0.1h-0.3
		c-0.6-0.4-1-0.8-1-1.2c0-0.4-0.2-0.9-0.6-1.4c0-0.1-0.2-0.3-0.5-0.5c-0.3-0.2-0.4-0.4-0.5-0.5c-0.4-0.5-0.8-1.2-1.1-1.9
		s-0.8-1.4-1.3-2.1c0,0-0.1-0.1-0.3-0.3s-0.2-0.3-0.3-0.4c0,0-0.2-0.1-0.3-0.1c-0.2,0-0.3-0.1-0.3-0.1c-0.3-0.2-0.6-0.5-0.8-0.8
		c-0.2-0.3-0.4-0.5-0.6-0.8c-0.2-0.3-0.4-0.5-0.7-0.8c-0.3-0.2-0.6-0.5-1.1-0.7c-0.2,0-0.7,0-1.3-0.1c-0.6,0-1.3-0.1-2-0.1
		c-0.7,0-1.4-0.1-2-0.1c-0.6,0-1.1-0.1-1.3-0.1h-2.2c0,0-0.2,0-0.4-0.1c-0.2,0-0.4-0.1-0.7-0.1c-0.3,0-0.5-0.1-0.7-0.1
		c-0.2,0-0.4-0.1-0.4-0.1h-0.7h-0.6c-0.1,0-0.3,0-0.7,0.1c-0.4,0-0.8,0.1-1.2,0.1c-0.4,0-0.8,0.1-1.2,0.1c-0.4,0-0.6,0.1-0.7,0.1
		H548c-0.1,0-0.2,0-0.4,0.1c-0.1,0.1-0.2,0.1-0.2,0.2v5.3c0,0.9-0.2,1.7-0.4,2.6c-0.2,0.8-0.3,1.7-0.3,2.5c0,1.3,0.1,2.6,0.2,3.9
		c0.1,1.3,0.2,2.6,0.2,3.9c0,0.9-0.1,1.8-0.2,2.8c-0.1,1-0.2,1.9-0.2,2.9v0.3c0.1,0.1,0.2,0.2,0.4,0.4c0.1,0.1,0.3,0.2,0.4,0.2h1
		h1.1c0,0,0.2,0,0.4-0.1c0.2,0,0.4-0.1,0.6-0.1c0.2,0,0.4-0.1,0.6-0.1c0.2,0,0.3-0.1,0.4-0.1h3.7c0.2,0,0.6,0,1.1,0
		c0.5,0,1.1,0,1.6-0.1c0.6,0,1.1,0,1.6-0.1c0.5,0,0.9,0,1.1,0c0.4-0.4,0.8-0.9,0.9-1.7c0.2-0.7,0.4-1.3,0.6-1.8c0-0.1,0-0.3,0.1-0.6
		c0-0.3,0.1-0.7,0.2-1c0.1-0.4,0.1-0.7,0.2-1c0-0.3,0.1-0.5,0.1-0.6c0-0.1,0.2-0.3,0.3-0.6c0.2-0.3,0.3-0.5,0.4-0.6
		c0.1-0.4,0.2-0.8,0.2-1.2c0-0.4,0.1-0.8,0.2-1.2c0.1-0.4,0.3-0.7,0.5-0.9c0.3-0.2,0.7-0.3,1.2-0.3c0.6,0,1,0.1,1.2,0.4
		c0.2,0.3,0.3,0.8,0.3,1.4c0,0.2,0,0.4,0,0.5c0,0.1-0.1,0.3-0.2,0.6c0,0,0,0.1,0,0.2c0,0.1,0,0.2,0,0.4c0,0.2,0,0.5,0,0.6
		c0,0.2,0,0.3,0,0.4c0,0.2,0,0.9-0.1,1.9c-0.1,1-0.2,2.1-0.3,3.3c-0.1,1.2-0.2,2.3-0.3,3.3c-0.1,1-0.1,1.7-0.2,2c0,0,0,0.3,0,0.8
		c0,0.5,0,0.9,0,1.4c0,0.2,0,0.5-0.1,0.7c0,0.2-0.1,0.4-0.1,0.5c0,0-0.1,0.3-0.2,0.7s-0.2,0.7-0.2,0.8c0,0.1,0,0.3,0,0.6
		c0,0.3,0.1,0.7,0.1,1c0,0.3,0.1,0.7,0.1,1c0,0.3,0,0.5,0,0.6c0,0.2,0,0.6,0,1.1c0,0.5,0,0.9,0,1.1c0,0.5,0,0.9-0.1,1.3
		c-0.1,0.4-0.3,0.8-0.6,1.3c0,0.1-0.2,0.2-0.4,0.4c-0.2,0.2-0.4,0.3-0.5,0.3c0,0-0.2-0.1-0.4-0.3c-0.2-0.2-0.4-0.3-0.5-0.4
		c-0.7-0.6-1.1-1.5-1.2-2.8c-0.1-1.3-0.2-2.5-0.2-3.8c0-1.3-0.2-2.4-0.4-3.5c-0.2-1.1-0.8-1.7-1.7-1.8c-0.2,0-0.6,0.1-1.1,0.1
		c-0.5,0-1,0-1.5,0c-0.6,0-1.1,0-1.7,0c-0.5,0-0.8,0-1-0.1c-0.1,0-0.4,0-0.7,0c-0.3,0-0.6,0-0.9-0.1c-0.3,0-0.6,0-0.9-0.1
		c-0.3,0-0.5,0-0.6,0c0-0.1-0.2-0.2-0.4-0.3c-0.2-0.1-0.3-0.1-0.4-0.1h-0.4c-0.7,0-1.4,0.2-2.1,0.5c-0.7,0.3-1.1,0.9-1.2,1.7
		c0,0.2,0,0.6-0.1,1.1c-0.1,0.6-0.2,1.2-0.3,1.9c-0.1,0.7-0.2,1.4-0.3,2c-0.1,0.7-0.1,1.1-0.1,1.4v0.2v0.3c0,0.2,0,0.6,0,1.1
		c0,0.5,0,1.1,0.1,1.7c0,0.6,0.1,1.1,0.1,1.7c0,0.5,0.1,0.9,0.1,1.1c0.1,0.2,0.2,0.4,0.3,0.5c0,0.1,0,0.2,0,0.4
		c0,1.1-0.1,2.2-0.2,3.3c-0.1,1.1-0.2,2.2-0.2,3.3c0,0.1,0,0.3,0,0.7c0,0.4,0,0.6,0,0.7c0,0.1,0.2,0.3,0.6,0.6
		c0.3,0.3,0.6,0.5,0.7,0.6c0.1,0.1,0.5,0.2,1.2,0.2c0.7,0,1.3,0.1,1.6,0.2c0.3,0,0.9,0,1.7,0c0.8,0,1.7,0,2.7,0.1
		c0.9,0,1.8,0,2.7,0.1c0.8,0,1.4,0,1.7,0c0.3,0.1,0.7,0.2,1,0.3c0.3,0,0.7,0.1,1,0.1h1.2h1.9c0.1,0,0.4-0.1,0.9-0.2
		c0.5-0.1,0.8-0.2,0.9-0.2h8c0.6-0.2,1.2-0.6,1.7-1.3c0.5-0.7,0.9-1.3,1.2-1.8c0,0,0.2-0.2,0.3-0.6c0.2-0.3,0.3-0.7,0.5-1
		c0.2-0.4,0.3-0.7,0.4-1c0.1-0.3,0.2-0.5,0.3-0.6c0-0.1,0.2-0.3,0.4-0.5c0.2-0.2,0.3-0.4,0.3-0.4c0-0.1,0.1-0.3,0.2-0.5
		c0.1-0.2,0.1-0.4,0.1-0.4c0.1-0.1,0.3-0.3,0.7-0.7c0.3-0.4,0.5-0.6,0.6-0.7c0,0,0.2-0.3,0.4-0.8c0.2-0.5,0.4-0.8,0.4-0.9
		c0-0.1,0.2-0.3,0.5-0.5c0.3-0.2,0.4-0.4,0.5-0.5c0.1-0.1,0.2-0.2,0.4-0.3c0.1,0,0.2-0.1,0.2-0.1c0.1,0.1,0.3,0.3,0.5,0.5
		s0.4,0.4,0.5,0.5v0.2c0,0.3,0,0.7-0.1,1c-0.1,0.3-0.1,0.6-0.1,1c0,0.4,0,0.7,0.1,1c0.1,0.3,0.1,0.6,0.1,1v0.4c0,0.1,0,0.3-0.1,0.5
		c-0.1,0.2-0.1,0.4-0.1,0.5v5c0,0.3,0,0.8-0.1,1.3c-0.1,0.5-0.2,1-0.4,1.5c-0.2,0.5-0.4,0.9-0.7,1.2c-0.3,0.3-0.7,0.5-1.2,0.5h-0.2
		c-0.2,0-0.5-0.1-1-0.2c-0.5-0.1-0.7-0.1-0.8-0.1l-0.3-0.1c-0.1,0-0.2-0.1-0.2-0.2h-0.2h-0.2c-1,0.3-1.9,0.5-2.8,0.5
		c-0.9,0-1.8,0-2.8,0.1c-0.1,0-0.3,0-0.5,0c-0.2,0-0.5,0.1-0.7,0.1c-0.3,0-0.5,0.1-0.7,0.1c-0.2,0-0.4,0.1-0.4,0.1h-0.2
		c-0.5,0-1-0.1-1.5-0.2S568,62,567.4,62c0,0-0.2,0-0.4,0c-0.2,0-0.5,0-0.8,0c-0.3,0-0.6,0-0.9,0C565,61.9,564.8,61.9,564.6,61.9z" fill="currentColor"></path> <path d="M664.1,61v-0.4c0-0.7,0.3-1.3,1-1.9c0.7-0.6,1.3-0.8,1.9-0.8c0.5,0,1-0.1,1.4-0.1c0.5,0,0.9,0,1.3,0
		c0.6,0,1.1,0,1.7,0c0.5,0,1.1,0.1,1.6,0.1c0.5,0,0.9-0.1,1-0.4c0.1-0.3,0.2-0.7,0.2-1.1c0-0.1,0-0.3,0-0.6c0-0.2,0-0.4,0-0.5
		c0-0.7-0.1-1.4-0.2-2c-0.1-0.7-0.2-1.3-0.2-2V51c0,0,0.1-0.3,0.2-0.6c0.1-0.4,0.1-0.6,0.1-0.6v-0.1v-0.2c0,0,0-0.2-0.1-0.6
		c0-0.3-0.1-0.7-0.1-1c0-0.4-0.1-0.7-0.1-1c0-0.3-0.1-0.5-0.1-0.6v-6.9c-0.1-0.3-0.2-0.7-0.3-1c0-0.3,0-0.7,0-1c0-0.1,0-0.4,0-0.7
		c0-0.3,0-0.5,0-0.6c0-0.2,0.1-0.6,0.2-0.9c0.1-0.4,0.1-0.7,0.1-1c0-0.4,0-0.8,0-1.2c0-0.4,0-0.6,0-0.7c0,0,0-0.2,0.1-0.5
		c0-0.3,0.1-0.6,0.1-0.9c0-0.3,0.1-0.6,0.1-0.9s0-0.5,0-0.5v-0.3c-0.1-0.1-0.2-0.4-0.2-0.8c0-0.4-0.1-0.7-0.1-0.8c0-0.7,0-1.9,0-3.5
		c0-1.6,0-3.4,0-5.2c0-1.8,0-3.5,0-5.2c0-1.6,0-2.8,0-3.4c0-0.1,0-0.3,0-0.7c0-0.3,0-0.7-0.1-1.1c0-0.4,0-0.8-0.1-1.1
		c0-0.3,0-0.6,0-0.7c0-0.4-0.3-0.8-0.7-1.1c-0.4-0.4-0.8-0.6-1.2-0.6c-0.8,0-1.7,0-2.5,0.1c-0.8,0.1-1.7,0.1-2.7,0.1
		c-1,0-1.8-0.1-2.4-0.2c-0.6-0.1-1.1-0.7-1.5-1.7V3c0-0.6,0.3-1,0.8-1.3c0.5-0.3,1-0.4,1.5-0.4c0.1,0,0.4,0,0.8,0
		c0.4,0,0.9-0.1,1.5-0.1c0.6,0,1.1-0.1,1.6-0.1c0.5,0,0.9,0,1.2,0h0.9c0.4,0,0.9,0.1,1.3,0.2c0.4,0.1,0.9,0.2,1.4,0.1
		c1.8-0.2,3.7-0.4,5.5-0.5s3.7-0.2,5.6-0.2c1,0,2,0.1,3,0.2c1,0.1,2,0.2,2.9,0.2c0.1,0,0.3-0.1,0.7-0.2c0.4-0.1,0.6-0.2,0.7-0.2
		c0,0,0.2,0,0.4,0.1c0.2,0,0.4,0.1,0.7,0.1c0.2,0,0.5,0.1,0.7,0.1c0.2,0,0.4,0.1,0.4,0.1c0.1,0,0.4,0,0.9,0c0.5,0,1.1,0,1.6,0
		c0.2,0,0.4,0,0.6,0c0.2,0,0.3,0,0.4,0c0.5,0,1,0.1,1.3,0.3c0.4,0.1,0.7,0.3,1.1,0.4c0.4,0.2,0.7,0.4,1.1,0.6s0.8,0.4,1.3,0.6
		c0,0,0.1,0.1,0.3,0.1c0.1,0,0.2,0.1,0.3,0.1c0.1,0.1,0.3,0.2,0.5,0.3c0.2,0,0.3,0.1,0.5,0.3c0.9,0.8,1.6,1.7,2.3,2.7
		c0.7,0.9,1.2,2,1.5,3.2c0,0.1,0,0.4,0.1,1c0.1,0.6,0.1,1,0.1,1.1c0.1,0,0.2,0.3,0.4,0.9c0.2,0.5,0.3,0.9,0.3,1c0,0,0,0.2,0,0.5
		c0,0.3,0,0.5,0,0.6c0,0.5-0.1,1.3-0.2,2.1s-0.3,1.8-0.5,2.7c-0.2,0.9-0.5,1.8-0.7,2.6c-0.3,0.8-0.6,1.5-0.9,1.9
		c-0.4,0.7-1,1.2-1.7,1.6c-0.8,0.4-1.5,0.8-2.1,1.3c0,0.1-0.1,0.2-0.3,0.4c-0.2,0.2-0.3,0.3-0.4,0.3c-0.4,0.2-0.9,0.5-1.6,0.8
		c-0.7,0.3-1,0.7-1,1.4v0.4c0.1,0.1,0.4,0.3,0.9,0.7c0.5,0.3,0.9,0.5,1.1,0.6c0,0,0.2,0.1,0.5,0.3c0.3,0.1,0.5,0.3,0.8,0.4
		c0.3,0.1,0.6,0.3,0.8,0.4c0.2,0.1,0.4,0.2,0.4,0.3c2.7,1.6,4.6,3.4,5.8,5.5c1.2,2.1,1.9,4.7,1.9,7.8c0,1-0.1,1.8-0.3,2.5
		c-0.2,0.7-0.4,1.5-0.6,2.4c0,0-0.1,0.2-0.1,0.5c0,0.2,0,0.4,0,0.5c-0.2,1-0.6,2.1-1,3.2c-0.4,1.2-1.1,2-1.9,2.6
		c-0.1,0-0.3,0.1-0.7,0.3c-0.3,0.2-0.7,0.5-1.2,0.8c-0.4,0.3-0.9,0.6-1.3,0.9c-0.4,0.3-0.8,0.5-1,0.7c-0.1,0-0.2,0-0.4,0.1
		c-0.2,0.1-0.3,0.1-0.3,0.2c0,0-0.2,0-0.4,0c-0.2,0-0.4,0-0.6,0.1c-0.2,0-0.4,0-0.6,0.1c-0.2,0-0.3,0-0.4,0
		c-0.1,0.1-0.4,0.2-0.9,0.4c-0.5,0.2-0.8,0.3-0.9,0.3c-0.1,0-0.3,0-0.5,0c-0.2,0-0.5,0-0.8,0c-0.6,0-1.2,0-1.9,0c-0.7,0-1.1,0-1.2,0
		c-0.1,0-0.4,0-0.8,0.1c-0.5,0.1-1,0.1-1.5,0.2c-0.6,0.1-1.1,0.1-1.5,0.2c-0.5,0-0.7,0.1-0.8,0.1c0,0-0.2,0.1-0.6,0.1
		c-0.3,0-0.6,0-0.8,0c-0.7,0-1.2-0.1-1.6-0.2c-0.4-0.1-0.9-0.2-1.5-0.2h-9.2c-0.1,0-0.4,0-0.7,0c-0.3,0-0.6,0-0.9,0.1
		c-0.3,0-0.7,0.1-1,0.1c-0.3,0-0.5,0.1-0.6,0.1c0,0-0.2,0.1-0.5,0.2c-0.3,0.1-0.5,0.1-0.5,0.1c-0.1,0-0.3,0-0.5-0.1
		c-0.3-0.1-0.4-0.2-0.5-0.2c-0.6,0-1.3-0.1-1.9-0.1c-0.6,0-1.3,0-1.9-0.1c-0.6,0-1.2-0.2-1.9-0.3C665.3,61.7,664.7,61.4,664.1,61z
		 M682.7,23.5c0,0.4,0,0.8,0.1,1.4c0,0.5,0.1,1,0.3,1.6c0.1,0.5,0.3,1,0.5,1.5c0.2,0.5,0.5,0.8,0.8,1h1.6c1,0,1.9-0.1,2.6-0.2
		c0.7-0.1,1.6-0.4,2.5-0.8c0.9-0.4,1.8-0.9,2.7-1.3c0.8-0.4,1.6-0.9,2.3-1.4c0.7-0.5,1.3-1.2,1.8-2c0.5-0.8,0.9-1.7,1.1-2.8
		c0,0,0-0.2,0.1-0.5c0-0.3,0.1-0.6,0.1-0.8c0-0.3,0.1-0.6,0.1-0.8c0-0.2,0.1-0.4,0.1-0.5c0,0,0-0.2,0.1-0.5c0-0.3,0.1-0.6,0.2-0.9
		c0.1-0.3,0.1-0.6,0.2-0.9c0-0.3,0.1-0.5,0.1-0.6v-0.4V13c0-0.4,0-0.9-0.1-1.3c-0.1-0.4-0.2-0.9-0.5-1.3c-0.1-0.2-0.3-0.5-0.5-0.8
		c-0.2-0.3-0.4-0.6-0.6-1c-0.2-0.3-0.4-0.6-0.6-0.8c-0.2-0.2-0.3-0.4-0.3-0.4c-0.7-0.9-1.5-1.6-2.3-2.1c-0.9-0.5-1.8-1-2.8-1.5
		c0,0-0.2-0.1-0.5-0.2c-0.3-0.1-0.4-0.1-0.5-0.2c-0.8-0.2-1.6-0.3-2.3-0.4c-0.7,0-1.5-0.1-2.5-0.2h-0.1c-0.8,0-1.4,0.1-1.8,0.4
		c-0.4,0.3-0.8,0.6-1,1.1s-0.4,1-0.5,1.5c-0.1,0.6-0.1,1.2-0.1,1.8c0,0.3,0,0.7,0,1c0,0.3,0,0.7,0,1c0,0.1,0,0.3,0,0.6s0,0.4,0,0.6
		c0,0.1,0,0.3-0.1,0.7c-0.1,0.4-0.1,0.6-0.1,0.7c0,0,0,0.2,0,0.4c0,0.2,0,0.5,0,0.9c0,0.3,0,0.6,0,1c0,0.3,0,0.6,0,0.8
		c0,0.2,0,0.5,0,0.8c0,0.3,0,0.7,0,1c0,0.3,0,0.8,0.1,1.3c0,0,0,0.3,0.1,0.7l0.1,0.6v0.2c0,0.6-0.1,1.2-0.2,1.8
		C682.8,22.3,682.7,22.9,682.7,23.5z M683.1,56.1c0,0.1,0,0.2,0.1,0.4c0.1,0.2,0.2,0.3,0.2,0.4c0.8,1,1.8,1.7,2.9,1.9
		c1.1,0.2,2.3,0.3,3.6,0.3c0.9,0,1.6,0,2.3-0.1c0.7-0.1,1.3-0.3,2-0.5c0.6-0.2,1.3-0.5,1.9-0.8c0.6-0.3,1.3-0.7,2-1.2
		c0.1,0,0.3-0.1,0.7-0.3c0.4-0.1,0.6-0.2,0.7-0.3c0.1-0.1,0.4-0.4,0.8-0.8c0.4-0.4,0.7-0.7,0.8-0.8c0.7-1,1.2-2.2,1.5-3.5
		c0.3-1.3,0.5-2.6,0.7-3.7c0-0.1,0-0.3-0.1-0.6c0-0.3-0.1-0.6-0.1-0.8c0-0.3-0.1-0.6-0.1-0.8c0-0.2-0.1-0.4-0.1-0.4v-1.6v-0.7
		c-0.2-1.1-0.5-2.2-1-3.2c-0.5-1.1-1.2-1.9-2.2-2.5c-0.5-0.2-1.1-0.6-1.9-1.2c-0.8-0.5-1.3-1-1.7-1.4c-0.5-0.2-1.1-0.4-1.7-0.6
		c-0.7-0.2-1.3-0.4-2-0.7c-0.7-0.2-1.4-0.4-2.1-0.6c-0.7-0.2-1.3-0.3-1.8-0.5h-0.7c-1,0-1.8,0.1-2.4,0.2c-0.6,0.1-1.1,0.4-1.4,0.8
		c-0.3,0.4-0.5,0.9-0.7,1.5c-0.1,0.6-0.2,1.5-0.3,2.4c0,0.2,0,0.7-0.1,1.2c0,0.6-0.1,1.2-0.1,1.8c0,0.7,0,1.3-0.1,1.9
		c0,0.6,0,1,0,1.2c0,0,0,0.4,0,1s0,1,0,1.3c0,0.3,0,0.8,0,1.4c0,0.6,0,0.9,0,1c0,0.3,0,0.9,0,1.8c0,0.9,0,1.8,0.1,2.7
		c0,1,0.1,1.9,0.1,2.7C683.1,55.2,683.1,55.8,683.1,56.1z" fill="currentColor"></path> <path d="M827.1,61.9c-0.2,0-0.6,0-1.1,0c-0.5,0-0.8,0-0.8,0l-1,0.4l-5.2-0.3h-11c-0.4-0.1-0.8-0.2-1.1-0.3
		c-0.3,0-0.6-0.1-1-0.1c-0.3,0-0.5,0-0.7,0c-0.2,0-0.4,0.1-0.7,0.3c-0.3,0-0.8,0-1.4,0c-0.7,0-1.3,0-2.1,0s-1.4,0-2.1,0
		c-0.7,0-1.1,0-1.3,0c-0.1,0-0.2,0-0.4,0c-0.2,0-0.4,0-0.7,0.1c-0.2,0-0.5,0-0.7,0.1c-0.2,0-0.4,0-0.4,0c-0.1,0-0.2,0.1-0.3,0.1
		h-0.4c-0.8,0-1.3-0.1-1.7-0.2s-0.7-0.6-1-1.4c-0.1,0-0.1,0-0.1-0.1v-0.1c0-0.4,0.3-0.9,0.8-1.5c0.5-0.5,1-0.8,1.5-0.8h4
		c0,0,0.2-0.2,0.5-0.5c0.3-0.3,0.6-0.6,0.8-0.8c0,0,0.1-0.2,0.2-0.3c0.1-0.2,0.1-0.3,0.1-0.4c0.3-1.7,0.5-3.3,0.6-5
		c0-1.7,0.1-3.4,0.1-5.2c0-0.2,0-0.8,0-1.8c0-1,0.1-2,0.1-3.1c0-1.1,0.1-2.1,0.1-3.1c0-1,0-1.6,0-1.8v-2.3c0-2.3,0-4.5-0.1-6.7
		c-0.1-2.2-0.1-4.4-0.1-6.6v-0.3c0-0.1,0-0.3,0-0.7c0-0.3,0.1-0.7,0.1-1.1c0-0.4,0.1-0.8,0.1-1.1c0-0.3,0-0.5,0-0.6
		c0-0.2,0-0.7,0-1.3c0-0.6,0.1-1.3,0.1-2c0-0.7,0.1-1.4,0.1-2c0-0.6,0-1.1,0-1.3c-0.1-0.4-0.2-0.9-0.3-1.4c0-0.5-0.1-0.9-0.1-1.4
		c-0.1-0.4-0.2-0.9-0.3-1.3c-0.1-0.4-0.4-0.7-0.8-1c-0.1,0-0.4,0-0.9,0c-0.4,0-0.9-0.1-1.3-0.1c-0.5,0-0.9-0.1-1.3-0.1
		c-0.4,0-0.7,0-0.8,0c-0.4,0-0.9-0.1-1.5-0.2c-0.5-0.1-1-0.3-1.5-0.5c-0.5-0.2-0.8-0.5-1.1-0.9c-0.3-0.4-0.4-0.8-0.4-1.4
		c0,0,0.1,0,0.1-0.1c0.1-0.1,0.2-0.1,0.3-0.1c0.7-0.4,1.3-0.7,1.8-0.8c0.5-0.1,1.2-0.2,2-0.2h0.2c0.1,0.1,0.2,0.2,0.3,0.2l0.3,0.1
		c1.4,0.1,2.8,0.2,4.2,0.2c1.4,0,2.8,0.1,4.2,0.1c1.2,0,2.3,0,3.4,0c1.1,0,2.2,0,3.3,0h9.3c0.1,0,0.3,0,0.5,0c0.3,0,0.5,0,0.8-0.1
		c0.3,0,0.6,0,0.8-0.1c0.3,0,0.5,0,0.6,0h0.3h0.3c0,0,0.2,0,0.5,0c0.3,0,0.7,0,1,0.1c0.4,0,0.7,0,1,0.1c0.3,0,0.5,0,0.6,0h5
		c0.2,0,0.6,0.1,1,0.1c0.4,0,0.9,0,1.3,0.1c0.4,0,0.8,0,1.1,0.1c0.3,0,0.5,0.1,0.5,0.1c0.1,0,0.4,0.1,1,0.4c0.6,0.3,1,0.6,1.3,0.8
		c0.3,0.2,0.5,0.6,0.7,1.2c0.2,0.6,0.3,1.3,0.4,2.1c0.1,0.8,0.2,1.5,0.3,2.3s0.1,1.3,0.2,1.7c0,0.1,0,0.4,0.1,0.7
		c0,0.3,0.1,0.7,0.1,1.1c0,0.4,0,0.8,0.1,1.1c0,0.3,0,0.6,0,0.7V15v1.2c-0.1,0.2-0.3,0.4-0.5,0.5c-0.2,0.1-0.5,0.1-0.7,0.1h-0.3
		c-0.6-0.4-1-0.8-1-1.2c0-0.4-0.2-0.9-0.6-1.4c0-0.1-0.2-0.3-0.5-0.5c-0.3-0.2-0.4-0.4-0.5-0.5c-0.4-0.5-0.8-1.2-1.1-1.9
		s-0.8-1.4-1.3-2.1c0,0-0.1-0.1-0.3-0.3s-0.2-0.3-0.3-0.4c0,0-0.2-0.1-0.3-0.1c-0.2,0-0.3-0.1-0.3-0.1c-0.3-0.2-0.6-0.5-0.8-0.8
		c-0.2-0.3-0.4-0.5-0.6-0.8c-0.2-0.3-0.4-0.5-0.7-0.8c-0.3-0.2-0.6-0.5-1.1-0.7c-0.2,0-0.7,0-1.3-0.1c-0.6,0-1.3-0.1-2-0.1
		c-0.7,0-1.4-0.1-2-0.1c-0.6,0-1.1-0.1-1.3-0.1h-2.2c0,0-0.2,0-0.4-0.1c-0.2,0-0.4-0.1-0.7-0.1c-0.3,0-0.5-0.1-0.7-0.1
		c-0.2,0-0.4-0.1-0.4-0.1h-0.7h-0.6c-0.1,0-0.3,0-0.7,0.1c-0.4,0-0.8,0.1-1.2,0.1c-0.4,0-0.8,0.1-1.2,0.1c-0.4,0-0.6,0.1-0.7,0.1
		h-2.5c-0.1,0-0.2,0-0.4,0.1C810,4.9,809.9,5,809.9,5v5.3c0,0.9-0.2,1.7-0.4,2.6c-0.2,0.8-0.3,1.7-0.3,2.5c0,1.3,0.1,2.6,0.2,3.9
		c0.1,1.3,0.2,2.6,0.2,3.9c0,0.9-0.1,1.8-0.2,2.8c-0.1,1-0.2,1.9-0.2,2.9v0.3c0.1,0.1,0.2,0.2,0.4,0.4c0.1,0.1,0.3,0.2,0.4,0.2h1
		h1.1c0,0,0.2,0,0.4-0.1c0.2,0,0.4-0.1,0.6-0.1c0.2,0,0.4-0.1,0.6-0.1c0.2,0,0.3-0.1,0.4-0.1h3.7c0.2,0,0.6,0,1.1,0
		c0.5,0,1.1,0,1.6-0.1c0.6,0,1.1,0,1.6-0.1c0.5,0,0.9,0,1.1,0c0.4-0.4,0.8-0.9,0.9-1.7c0.2-0.7,0.4-1.3,0.6-1.8c0-0.1,0-0.3,0.1-0.6
		c0-0.3,0.1-0.7,0.2-1c0.1-0.4,0.1-0.7,0.2-1c0-0.3,0.1-0.5,0.1-0.6c0-0.1,0.2-0.3,0.3-0.6c0.2-0.3,0.3-0.5,0.4-0.6
		c0.1-0.4,0.2-0.8,0.2-1.2c0-0.4,0.1-0.8,0.2-1.2c0.1-0.4,0.3-0.7,0.5-0.9c0.3-0.2,0.7-0.3,1.2-0.3c0.6,0,1,0.1,1.2,0.4
		c0.2,0.3,0.3,0.8,0.3,1.4c0,0.2,0,0.4,0,0.5c0,0.1-0.1,0.3-0.2,0.6c0,0,0,0.1,0,0.2c0,0.1,0,0.2,0,0.4c0,0.2,0,0.5,0,0.6
		c0,0.2,0,0.3,0,0.4c0,0.2,0,0.9-0.1,1.9c-0.1,1-0.2,2.1-0.3,3.3c-0.1,1.2-0.2,2.3-0.3,3.3c-0.1,1-0.1,1.7-0.2,2c0,0,0,0.3,0,0.8
		c0,0.5,0,0.9,0,1.4c0,0.2,0,0.5-0.1,0.7c0,0.2-0.1,0.4-0.1,0.5c0,0-0.1,0.3-0.2,0.7s-0.2,0.7-0.2,0.8c0,0.1,0,0.3,0,0.6
		c0,0.3,0.1,0.7,0.1,1c0,0.3,0.1,0.7,0.1,1c0,0.3,0,0.5,0,0.6c0,0.2,0,0.6,0,1.1c0,0.5,0,0.9,0,1.1c0,0.5,0,0.9-0.1,1.3
		c-0.1,0.4-0.3,0.8-0.6,1.3c0,0.1-0.2,0.2-0.4,0.4c-0.2,0.2-0.4,0.3-0.5,0.3c0,0-0.2-0.1-0.4-0.3c-0.2-0.2-0.4-0.3-0.5-0.4
		c-0.7-0.6-1.1-1.5-1.2-2.8c-0.1-1.3-0.2-2.5-0.2-3.8c0-1.3-0.2-2.4-0.4-3.5c-0.2-1.1-0.8-1.7-1.7-1.8c-0.2,0-0.6,0.1-1.1,0.1
		c-0.5,0-1,0-1.5,0c-0.6,0-1.1,0-1.7,0c-0.5,0-0.8,0-1-0.1c-0.1,0-0.4,0-0.7,0c-0.3,0-0.6,0-0.9-0.1c-0.3,0-0.6,0-0.9-0.1
		c-0.3,0-0.5,0-0.6,0c0-0.1-0.2-0.2-0.4-0.3c-0.2-0.1-0.3-0.1-0.4-0.1h-0.4c-0.7,0-1.4,0.2-2.1,0.5c-0.7,0.3-1.1,0.9-1.2,1.7
		c0,0.2,0,0.6-0.1,1.1c-0.1,0.6-0.2,1.2-0.3,1.9c-0.1,0.7-0.2,1.4-0.3,2c-0.1,0.7-0.1,1.1-0.1,1.4v0.2v0.3c0,0.2,0,0.6,0,1.1
		c0,0.5,0,1.1,0.1,1.7c0,0.6,0.1,1.1,0.1,1.7c0,0.5,0.1,0.9,0.1,1.1c0.1,0.2,0.2,0.4,0.3,0.5c0,0.1,0,0.2,0,0.4
		c0,1.1-0.1,2.2-0.2,3.3c-0.1,1.1-0.2,2.2-0.2,3.3c0,0.1,0,0.3,0,0.7c0,0.4,0,0.6,0,0.7c0,0.1,0.2,0.3,0.6,0.6
		c0.3,0.3,0.6,0.5,0.7,0.6c0.1,0.1,0.5,0.2,1.2,0.2c0.7,0,1.3,0.1,1.6,0.2c0.3,0,0.9,0,1.7,0c0.8,0,1.7,0,2.7,0.1
		c0.9,0,1.8,0,2.7,0.1c0.8,0,1.4,0,1.7,0c0.3,0.1,0.7,0.2,1,0.3c0.3,0,0.7,0.1,1,0.1h1.2h1.9c0.1,0,0.4-0.1,0.9-0.2
		c0.5-0.1,0.8-0.2,0.9-0.2h8c0.6-0.2,1.2-0.6,1.7-1.3c0.5-0.7,0.9-1.3,1.2-1.8c0,0,0.2-0.2,0.3-0.6c0.2-0.3,0.3-0.7,0.5-1
		c0.2-0.4,0.3-0.7,0.4-1c0.1-0.3,0.2-0.5,0.3-0.6c0-0.1,0.2-0.3,0.4-0.5c0.2-0.2,0.3-0.4,0.3-0.4c0-0.1,0.1-0.3,0.2-0.5
		c0.1-0.2,0.1-0.4,0.1-0.4c0.1-0.1,0.3-0.3,0.7-0.7c0.3-0.4,0.5-0.6,0.6-0.7c0,0,0.2-0.3,0.4-0.8c0.2-0.5,0.4-0.8,0.4-0.9
		c0-0.1,0.2-0.3,0.5-0.5c0.3-0.2,0.4-0.4,0.5-0.5c0.1-0.1,0.2-0.2,0.4-0.3c0.1,0,0.2-0.1,0.2-0.1c0.1,0.1,0.3,0.3,0.5,0.5
		s0.4,0.4,0.5,0.5v0.2c0,0.3,0,0.7-0.1,1c-0.1,0.3-0.1,0.6-0.1,1c0,0.4,0,0.7,0.1,1c0.1,0.3,0.1,0.6,0.1,1v0.4c0,0.1,0,0.3-0.1,0.5
		c-0.1,0.2-0.1,0.4-0.1,0.5v5c0,0.3,0,0.8-0.1,1.3c-0.1,0.5-0.2,1-0.4,1.5c-0.2,0.5-0.4,0.9-0.7,1.2c-0.3,0.3-0.7,0.5-1.2,0.5h-0.2
		c-0.2,0-0.5-0.1-1-0.2c-0.5-0.1-0.7-0.1-0.8-0.1l-0.3-0.1c-0.1,0-0.2-0.1-0.2-0.2h-0.2h-0.2c-1,0.3-1.9,0.5-2.8,0.5
		c-0.9,0-1.8,0-2.8,0.1c-0.1,0-0.3,0-0.5,0c-0.2,0-0.5,0.1-0.7,0.1c-0.3,0-0.5,0.1-0.7,0.1c-0.2,0-0.4,0.1-0.4,0.1h-0.2
		c-0.5,0-1-0.1-1.5-0.2s-0.9-0.2-1.5-0.2c0,0-0.2,0-0.4,0c-0.2,0-0.5,0-0.8,0c-0.3,0-0.6,0-0.9,0C827.5,61.9,827.3,61.9,827.1,61.9z
		" fill="currentColor"></path> <path d="M1.5,173.7v-0.4c0-0.7,0.3-1.3,1-1.9c0.7-0.6,1.3-0.8,1.9-0.8c0.5,0,1-0.1,1.4-0.1c0.5,0,0.9,0,1.3,0
		c0.6,0,1.1,0,1.7,0c0.5,0,1.1,0.1,1.6,0.1c0.5,0,0.9-0.1,1-0.4c0.1-0.3,0.2-0.7,0.2-1.1c0-0.1,0-0.3,0-0.6c0-0.2,0-0.4,0-0.5
		c0-0.7-0.1-1.4-0.2-2c-0.1-0.7-0.2-1.3-0.2-2v-0.2c0,0,0.1-0.3,0.2-0.6c0.1-0.4,0.1-0.6,0.1-0.6v-0.1V162c0,0,0-0.2-0.1-0.6
		c0-0.3-0.1-0.7-0.1-1c0-0.4-0.1-0.7-0.1-1c0-0.3-0.1-0.5-0.1-0.6v-6.9c-0.1-0.3-0.2-0.7-0.3-1c0-0.3,0-0.7,0-1c0-0.1,0-0.4,0-0.7
		c0-0.3,0-0.5,0-0.6c0-0.2,0.1-0.6,0.2-0.9c0.1-0.4,0.1-0.7,0.1-1c0-0.4,0-0.8,0-1.2c0-0.4,0-0.6,0-0.7c0,0,0-0.2,0.1-0.5
		c0-0.3,0.1-0.6,0.1-0.9c0-0.3,0.1-0.6,0.1-0.9c0-0.3,0-0.5,0-0.5v-0.3c-0.1-0.1-0.2-0.4-0.2-0.8c0-0.4-0.1-0.7-0.1-0.8
		c0-0.7,0-1.9,0-3.5c0-1.6,0-3.4,0-5.2c0-1.8,0-3.5,0-5.2c0-1.6,0-2.8,0-3.4c0-0.1,0-0.3,0-0.7c0-0.3,0-0.7-0.1-1.1
		c0-0.4,0-0.8-0.1-1.1c0-0.3,0-0.6,0-0.7c0-0.4-0.3-0.8-0.7-1.1c-0.4-0.4-0.8-0.6-1.2-0.6c-0.8,0-1.7,0-2.5,0.1
		c-0.8,0.1-1.7,0.1-2.7,0.1c-1,0-1.8-0.1-2.4-0.2c-0.6-0.1-1.1-0.7-1.5-1.7v-0.1c0-0.6,0.3-1,0.8-1.3c0.5-0.3,1-0.4,1.5-0.4
		c0.1,0,0.4,0,0.8,0c0.4,0,0.9-0.1,1.5-0.1c0.6,0,1.1-0.1,1.6-0.1c0.5,0,0.9,0,1.2,0h0.9c0.4,0,0.9,0.1,1.3,0.2
		c0.4,0.1,0.9,0.2,1.4,0.1c1.8-0.2,3.7-0.4,5.5-0.5c1.8-0.1,3.7-0.2,5.6-0.2c1,0,2,0.1,3,0.2c1,0.1,2,0.2,2.9,0.2
		c0.1,0,0.3-0.1,0.7-0.2c0.4-0.1,0.6-0.2,0.7-0.2c0,0,0.2,0,0.4,0.1c0.2,0,0.4,0.1,0.7,0.1c0.2,0,0.5,0.1,0.7,0.1
		c0.2,0,0.4,0.1,0.4,0.1c0.1,0,0.4,0,0.9,0c0.5,0,1.1,0,1.6,0c0.2,0,0.4,0,0.6,0c0.2,0,0.3,0,0.4,0c0.5,0,1,0.1,1.3,0.3
		c0.4,0.1,0.7,0.3,1.1,0.4c0.4,0.2,0.7,0.4,1.1,0.6s0.8,0.4,1.3,0.6c0,0,0.1,0.1,0.3,0.1c0.1,0,0.2,0.1,0.3,0.1
		c0.1,0.1,0.3,0.2,0.5,0.3c0.2,0,0.3,0.1,0.5,0.3c0.9,0.8,1.6,1.7,2.3,2.7c0.7,0.9,1.2,2,1.5,3.2c0,0.1,0,0.4,0.1,1
		c0.1,0.6,0.1,1,0.1,1.1c0.1,0,0.2,0.3,0.4,0.9c0.2,0.5,0.3,0.9,0.3,1c0,0,0,0.2,0,0.5c0,0.3,0,0.5,0,0.6c0,0.5-0.1,1.3-0.2,2.1
		c-0.1,0.9-0.3,1.8-0.5,2.7c-0.2,0.9-0.5,1.8-0.7,2.6c-0.3,0.8-0.6,1.5-0.9,1.9c-0.4,0.7-1,1.2-1.7,1.6c-0.8,0.4-1.5,0.8-2.1,1.3
		c0,0.1-0.1,0.2-0.3,0.4c-0.2,0.2-0.3,0.3-0.4,0.3c-0.4,0.2-0.9,0.5-1.6,0.8c-0.7,0.3-1,0.7-1,1.4v0.4c0.1,0.1,0.4,0.3,0.9,0.7
		c0.5,0.3,0.9,0.5,1.1,0.6c0,0,0.2,0.1,0.5,0.3c0.3,0.1,0.5,0.3,0.8,0.4s0.6,0.3,0.8,0.4c0.2,0.1,0.4,0.2,0.4,0.3
		c2.7,1.6,4.6,3.4,5.8,5.5c1.2,2.1,1.9,4.7,1.9,7.8c0,1-0.1,1.8-0.3,2.5c-0.2,0.7-0.4,1.5-0.6,2.4c0,0-0.1,0.2-0.1,0.5
		c0,0.2,0,0.4,0,0.5c-0.2,1-0.6,2.1-1,3.2c-0.4,1.2-1.1,2-1.9,2.6c-0.1,0-0.3,0.1-0.7,0.3c-0.3,0.2-0.7,0.5-1.2,0.8
		s-0.9,0.6-1.3,0.9s-0.8,0.5-1,0.7c-0.1,0-0.2,0-0.4,0.1c-0.2,0.1-0.3,0.1-0.3,0.2c0,0-0.2,0-0.4,0c-0.2,0-0.4,0-0.6,0.1
		c-0.2,0-0.4,0-0.6,0.1c-0.2,0-0.3,0-0.4,0c-0.1,0.1-0.4,0.2-0.9,0.4c-0.5,0.2-0.8,0.3-0.9,0.3c-0.1,0-0.3,0-0.5,0
		c-0.2,0-0.5,0-0.8,0c-0.6,0-1.2,0-1.9,0c-0.7,0-1.1,0-1.2,0c-0.1,0-0.4,0-0.8,0.1c-0.5,0.1-1,0.1-1.5,0.2c-0.6,0.1-1.1,0.1-1.5,0.2
		c-0.5,0-0.7,0.1-0.8,0.1c0,0-0.2,0.1-0.6,0.1c-0.3,0-0.6,0-0.8,0c-0.7,0-1.2-0.1-1.6-0.2c-0.4-0.1-0.9-0.2-1.5-0.2h-9.2
		c-0.1,0-0.4,0-0.7,0c-0.3,0-0.6,0-0.9,0.1c-0.3,0-0.7,0.1-1,0.1c-0.3,0-0.5,0.1-0.6,0.1c0,0-0.2,0.1-0.5,0.2
		c-0.3,0.1-0.5,0.1-0.5,0.1c-0.1,0-0.3,0-0.5-0.1C9.1,175.1,9,175,8.9,175c-0.6,0-1.3-0.1-1.9-0.1c-0.6,0-1.3,0-1.9-0.1
		c-0.6,0-1.2-0.2-1.9-0.3C2.7,174.3,2.1,174.1,1.5,173.7z M20.1,136.1c0,0.4,0,0.8,0.1,1.4c0,0.5,0.1,1,0.3,1.6
		c0.1,0.5,0.3,1,0.5,1.5c0.2,0.5,0.5,0.8,0.8,1h1.6c1,0,1.9-0.1,2.6-0.2c0.7-0.1,1.6-0.4,2.5-0.8c0.9-0.4,1.8-0.9,2.7-1.3
		c0.8-0.4,1.6-0.9,2.3-1.4c0.7-0.5,1.3-1.2,1.8-2c0.5-0.8,0.9-1.7,1.1-2.8c0,0,0-0.2,0.1-0.5c0-0.3,0.1-0.6,0.1-0.8
		c0-0.3,0.1-0.6,0.1-0.8c0-0.2,0.1-0.4,0.1-0.5c0,0,0-0.2,0.1-0.5c0-0.3,0.1-0.6,0.2-0.9c0.1-0.3,0.1-0.6,0.2-0.9
		c0-0.3,0.1-0.5,0.1-0.6v-0.4v-1.5c0-0.4,0-0.9-0.1-1.3c-0.1-0.4-0.2-0.9-0.5-1.3c-0.1-0.2-0.3-0.5-0.5-0.8c-0.2-0.3-0.4-0.6-0.6-1
		c-0.2-0.3-0.4-0.6-0.6-0.8c-0.2-0.2-0.3-0.4-0.3-0.4c-0.7-0.9-1.5-1.6-2.3-2.1c-0.9-0.5-1.8-1-2.8-1.5c0,0-0.2-0.1-0.5-0.2
		c-0.3-0.1-0.4-0.1-0.5-0.2c-0.8-0.2-1.6-0.3-2.3-0.4c-0.7,0-1.5-0.1-2.5-0.2h-0.1c-0.8,0-1.4,0.1-1.8,0.4c-0.4,0.3-0.8,0.6-1,1.1
		c-0.2,0.4-0.4,1-0.5,1.5c-0.1,0.6-0.1,1.2-0.1,1.8c0,0.3,0,0.7,0,1c0,0.3,0,0.7,0,1c0,0.1,0,0.3,0,0.6c0,0.2,0,0.4,0,0.6
		c0,0.1,0,0.3-0.1,0.7c-0.1,0.4-0.1,0.6-0.1,0.7c0,0,0,0.2,0,0.4c0,0.2,0,0.5,0,0.9c0,0.3,0,0.6,0,1c0,0.3,0,0.6,0,0.8
		c0,0.2,0,0.5,0,0.8c0,0.3,0,0.7,0,1c0,0.3,0,0.8,0.1,1.3c0,0,0,0.3,0.1,0.7l0.1,0.6v0.2c0,0.6-0.1,1.2-0.2,1.8
		C20.2,135,20.1,135.5,20.1,136.1z M20.5,168.8c0,0.1,0,0.2,0.1,0.4c0.1,0.2,0.2,0.3,0.2,0.4c0.8,1,1.8,1.7,2.9,1.9
		c1.1,0.2,2.3,0.3,3.6,0.3c0.9,0,1.6,0,2.3-0.1c0.7-0.1,1.3-0.3,2-0.5c0.6-0.2,1.3-0.5,1.9-0.8c0.6-0.3,1.3-0.7,2-1.2
		c0.1,0,0.3-0.1,0.7-0.3c0.4-0.1,0.6-0.2,0.7-0.3c0.1-0.1,0.4-0.4,0.8-0.8c0.4-0.4,0.7-0.7,0.8-0.8c0.7-1,1.2-2.2,1.5-3.5
		c0.3-1.3,0.5-2.6,0.7-3.7c0-0.1,0-0.3-0.1-0.6c0-0.3-0.1-0.6-0.1-0.8c0-0.3-0.1-0.6-0.1-0.8c0-0.2-0.1-0.4-0.1-0.4v-1.6v-0.7
		c-0.2-1.1-0.5-2.2-1-3.2c-0.5-1.1-1.2-1.9-2.2-2.5c-0.5-0.2-1.1-0.6-1.9-1.2c-0.8-0.5-1.3-1-1.7-1.4c-0.5-0.2-1.1-0.4-1.7-0.6
		c-0.7-0.2-1.3-0.4-2-0.7c-0.7-0.2-1.4-0.4-2.1-0.6c-0.7-0.2-1.3-0.3-1.8-0.5h-0.7c-1,0-1.8,0.1-2.4,0.2c-0.6,0.1-1.1,0.4-1.4,0.8
		c-0.3,0.4-0.5,0.9-0.7,1.5c-0.1,0.6-0.2,1.5-0.3,2.4c0,0.2,0,0.7-0.1,1.2c0,0.6-0.1,1.2-0.1,1.8c0,0.7,0,1.3-0.1,1.9
		c0,0.6,0,1,0,1.2c0,0,0,0.4,0,1c0,0.6,0,1,0,1.3c0,0.3,0,0.8,0,1.4c0,0.6,0,0.9,0,1c0,0.3,0,0.9,0,1.8c0,0.9,0,1.8,0.1,2.7
		c0,1,0.1,1.9,0.1,2.7C20.5,167.9,20.5,168.5,20.5,168.8z" fill="currentColor"></path> <path d="M128.2,173.4c0-0.1,0-0.2,0.1-0.3c0,0,0.1-0.1,0.1-0.2c0-0.1,0.2-0.3,0.5-0.6c0.3-0.2,0.5-0.4,0.6-0.5
		c0.1,0,0.4,0,0.8-0.1c0.4,0,0.8-0.1,1.2-0.1c0.4,0,0.8-0.1,1.1-0.2c0.3-0.1,0.6-0.1,0.7-0.1c0.9-0.1,1.8-0.2,2.7-0.2
		c0.8,0,1.5-0.5,2.1-1.4v-2.3c0-1.3,0-2.7,0.1-4c0.1-1.3,0.2-2.7,0.4-4.1c0.1-0.1,0.2-0.3,0.3-0.5c0-0.2,0-0.4,0-0.6v-0.4
		c0,0,0-0.2,0-0.4c0-0.2-0.1-0.4-0.1-0.6c0-0.2-0.1-0.4-0.1-0.6c0-0.2,0-0.3,0-0.3v-3.6v-3.7c0.1-0.1,0.2-0.2,0.2-0.4
		c0-0.2,0.1-0.3,0.1-0.4c0-0.1,0-0.4-0.1-0.7c0-0.3-0.1-0.5-0.2-0.6v-7.2v-7c0-0.1,0-0.5,0-1.1c0-0.6,0.1-1.2,0.1-1.8
		c0-0.6,0.1-1.2,0.1-1.8c0-0.5,0-0.9,0-1c0-0.1,0-0.4-0.1-0.8c-0.1-0.4-0.1-0.7-0.1-0.8c0-0.2,0-0.4,0-0.6c0-0.2,0-0.4,0-0.6
		c0-0.2,0-0.5,0-0.7c0-0.2,0-0.5,0-0.7c0-0.7-0.1-1.4-0.3-2.1c-0.2-0.6-0.7-1.2-1.4-1.8h-3.1c-0.1,0-0.3,0-0.5,0
		c-0.3,0-0.5,0-0.8-0.1c-0.3,0-0.6-0.1-0.8-0.1c-0.2,0-0.4-0.1-0.6-0.1c-0.5-0.1-1-0.2-1.6-0.3c-0.6-0.1-0.9-0.5-0.9-1.1
		c0-0.5,0.3-0.9,0.9-1.1c0.6-0.2,1.1-0.3,1.6-0.3h3.1c0.3,0,0.7,0,1.3-0.1c0.6,0,1.1-0.1,1.8-0.1c0.6,0,1.2-0.1,1.7-0.1
		c0.5,0,0.9-0.1,1-0.1c0,0,0.2-0.1,0.6-0.1c0.3,0,0.5,0,0.6,0c0.1,0,0.3,0,0.7,0c0.4,0,0.6,0.1,0.7,0.1c0.2,0.1,0.5,0.2,0.8,0.2
		c0.4,0,0.6,0,0.6,0c0.1,0,0.3,0,0.5-0.1c0.2-0.1,0.4-0.1,0.4-0.1c0.1,0,0.4-0.1,0.8-0.1c0.4,0,0.8-0.1,0.9-0.1c0.9,0,1.7,0,2.4,0.1
		c0.8,0,1.6,0.1,2.6,0.1c0.4,0,0.8,0,1.3,0.1c0.5,0,0.8,0.1,0.9,0.1c0,0,0.2,0,0.5,0c0.3,0,0.5,0,0.5,0h0.3c0.1,0,0.2,0,0.3,0
		c0.1,0,0.2,0,0.3,0c0.1,0,0.2,0,0.4,0c0.2,0,0.3,0,0.4,0c0.2,0,0.6,0.1,1.1,0.2c0.5,0.1,1.1,0.1,1.7,0.2c0.6,0.1,1.1,0.1,1.6,0.2
		c0.5,0.1,0.8,0.1,1,0.1c1.5,0.2,2.8,0.7,3.9,1.3c1.1,0.6,2.2,1.5,3.3,2.4c0.3,0.3,0.7,0.8,1.1,1.4c0.4,0.7,0.7,1.4,1.1,2.1
		c0.3,0.8,0.6,1.5,0.8,2.3c0.2,0.8,0.3,1.4,0.3,1.8v0.8c-0.1,1.5-0.3,3.1-0.4,4.6c-0.1,1.6-0.4,3.1-0.9,4.5c0,0-0.2,0.1-0.3,0.4
		c-0.2,0.2-0.3,0.4-0.4,0.5c-0.8,1.1-1.5,2.2-2.2,3.1c-0.7,0.9-1.6,1.7-2.8,2.4c-0.1,0.1-0.4,0.2-0.8,0.4c-0.4,0.2-0.8,0.4-1.2,0.6
		c-0.4,0.2-0.7,0.4-1,0.6c-0.3,0.2-0.4,0.3-0.4,0.4v0.1c1.5,1.3,2.7,2.7,3.7,4.2c1,1.5,2,3.1,3.2,4.6c0,0,0.1,0.2,0.3,0.3
		c0.2,0.2,0.3,0.3,0.4,0.3c0.1,0.2,0.3,0.5,0.7,1c0.3,0.4,0.5,0.7,0.6,0.7c0,0.1,0.2,0.4,0.5,0.8c0.3,0.4,0.5,0.9,0.8,1.4
		c0.3,0.5,0.5,1,0.8,1.4c0.2,0.4,0.4,0.7,0.4,0.8c0.4,0.7,0.8,1.3,1.3,1.7c0.5,0.4,1,1,1.5,1.5c0.3,0.5,0.6,1,0.8,1.5
		c0.2,0.5,0.4,1,0.7,1.4c0.4,0.7,0.9,1.3,1.5,1.9c0.6,0.6,1.2,1.1,1.9,1.7c0.2,0.2,0.7,0.4,1.5,0.4c0.8,0,1.5,0.1,2.3,0.1
		c0.8,0.1,1.5,0.2,2.1,0.5c0.6,0.3,0.9,0.8,0.9,1.5c0,0.4-0.2,0.9-0.5,1.3s-0.8,0.6-1.3,0.6c-1.4,0-2.7-0.1-4.1-0.3
		c-1.4-0.2-2.8-0.3-4.2-0.3h-0.6c-0.1,0-0.3,0-0.6,0c-0.3,0-0.7,0-1.1,0.1c-0.4,0-0.8,0-1.1,0.1c-0.3,0-0.6,0-0.7,0
		c-0.2,0-0.7,0.1-1.4,0.1c-0.7,0-1.5,0.1-2.3,0.1c-0.8,0-1.6,0.1-2.3,0.1c-0.7,0-1.2,0.1-1.3,0.1c-0.1,0-0.4,0.1-0.8,0.2
		c-0.4,0.1-0.7,0.2-0.8,0.2h-1.5c-0.5,0-1-0.2-1.4-0.5c-0.4-0.3-0.6-0.8-0.6-1.5c0-0.2,0-0.6,0.1-1.1c0.1-0.5,0.4-0.7,0.8-0.7h5.7
		c0.1,0,0.2-0.1,0.2-0.4c0-0.2,0.1-0.4,0.1-0.5c0-0.7-0.2-1.3-0.7-1.8c-0.5-0.5-0.9-1.1-1.3-1.6c-0.4-0.6-0.8-1.3-1.1-1.9
		c-0.3-0.6-0.7-1.3-1.2-2c-0.5-0.9-1.1-1.8-1.8-2.7c-0.7-0.9-1.3-1.8-1.9-2.8c0,0-0.2-0.2-0.4-0.6c-0.2-0.3-0.4-0.7-0.6-1
		c-0.2-0.4-0.4-0.7-0.6-1c-0.2-0.3-0.3-0.5-0.4-0.6c-0.2-0.2-0.5-0.6-0.9-1.1c-0.4-0.6-0.9-1.1-1.4-1.7c-0.5-0.6-0.9-1.1-1.4-1.7
		c-0.4-0.5-0.8-0.9-0.9-1.1c0-0.1-0.1-0.2-0.2-0.4s-0.2-0.2-0.3-0.3c-0.5-0.7-1.1-1.3-1.7-1.8c-0.6-0.5-1.4-0.8-2.4-0.8h-0.5
		c-0.1,0.2-0.3,0.7-0.6,1.2c-0.3,0.6-0.5,0.9-0.6,1.1v0.2c0,0.5,0.1,0.9,0.2,1.3c0.1,0.4,0.2,0.8,0.2,1.4c0,0.4,0,0.9,0,1.3
		c0,0.4-0.1,0.9-0.3,1.5v14.4c0,0.8,0.1,1.6,0.4,2.2s0.9,1,1.8,1c0.7,0,1.4,0,2.1-0.1c0.7-0.1,1.4-0.1,2.1-0.1
		c0.4,0,0.8,0.1,1.1,0.4s0.5,0.7,0.5,1.2c0,0.5-0.1,1-0.3,1.5c-0.2,0.4-0.6,0.7-1.3,0.7c-0.1,0-0.4,0-0.9-0.1
		c-0.5-0.1-0.8-0.2-0.9-0.3h-1.3c-0.6,0-1.1,0.1-1.7,0.2c-0.5,0.1-1.1,0.2-1.7,0.2c-0.9,0-1.7-0.1-2.6-0.2c-0.9-0.1-1.7-0.2-2.6-0.2
		c-0.5,0-1.1,0.1-1.6,0.2c-0.5,0.1-1.1,0.2-1.6,0.2h-0.4c-0.1,0-0.5,0-1,0c-0.5,0-1.1,0-1.6-0.1c-0.6,0-1.1-0.1-1.6-0.1
		c-0.5,0-0.8-0.1-1-0.1c-0.1,0-0.4,0-0.9,0c-0.5,0-1,0-1.5,0c-0.6,0-0.9,0-1-0.1c0,0-0.2,0-0.5-0.1c-0.3,0-0.5-0.1-0.7-0.1
		c-0.2-0.1-0.4-0.2-0.4-0.4C128.2,173.8,128.2,173.6,128.2,173.4z M146.9,139.5c0,0.2,0.2,0.7,0.3,1.5c0.2,0.7,0.3,1.2,0.4,1.5
		c0.1,0.3,0.3,0.6,0.5,1c0.2,0.4,0.6,0.6,0.9,0.6c0.6,0,1.2,0,2-0.1s1.5-0.2,2.2-0.4c0.7-0.2,1.4-0.4,2.1-0.7s1.2-0.6,1.7-1
		c0.1,0,0.4-0.3,0.8-0.8c0.4-0.5,0.7-0.7,0.8-0.7c0.1-0.1,0.3-0.2,0.7-0.4c0.4-0.2,0.6-0.3,0.7-0.3c0.1,0,0.2-0.1,0.2-0.2
		c0.2-0.3,0.6-0.8,1.1-1.5c0.5-0.6,0.8-1,0.8-1c0.5-0.8,0.8-1.7,0.9-2.6c0.1-0.9,0.3-1.8,0.6-2.6c0.1-0.1,0.2-0.3,0.3-0.5
		c0.1-0.2,0.2-0.5,0.2-0.9c0-0.1,0-0.3-0.1-0.7c-0.1-0.4-0.1-0.6-0.1-0.7c-0.1-0.9-0.3-1.8-0.4-2.6c-0.1-0.9-0.4-1.7-0.8-2.5
		c0-0.1-0.2-0.3-0.3-0.6c-0.2-0.3-0.4-0.6-0.5-0.9c-0.2-0.3-0.4-0.6-0.6-0.9c-0.2-0.3-0.3-0.5-0.4-0.7c-0.1,0-0.2-0.1-0.4-0.3
		c0,0-0.1,0-0.2-0.1l-0.3-0.1c-0.7-0.4-1.3-0.8-1.7-1c-0.4-0.2-0.9-0.4-1.7-0.7c-1.1-0.3-2-0.7-2.9-0.9c-0.9-0.3-1.8-0.4-2.8-0.4
		c-0.4,0-0.8,0-1.3,0c-0.5,0-0.8,0.1-1.1,0.3c-0.1,0.1-0.4,0.4-0.7,0.8c-0.3,0.4-0.5,0.7-0.6,0.8c0,0.1-0.1,0.4-0.1,0.7
		c0,0.3-0.1,0.7-0.1,1.1c0,0.4,0,0.8-0.1,1.1c0,0.3,0,0.6,0,0.7v8.4V139.5z" fill="currentColor"></path> <path d="M280.4,174.7c-0.2,0-0.6,0-1,0c-0.4,0-0.8,0-1.2,0c-0.4,0-0.8,0-1.1,0c-0.3,0-0.6,0.1-0.7,0.1
		c-0.2,0-0.4,0-0.6,0.1c-0.5,0.1-0.8,0.1-0.9,0.1c-0.1,0-0.3,0-0.7,0.1c-0.3,0.1-0.5,0.1-0.6,0.1h-2.5c-0.3,0-0.6,0-0.9,0.1
		c-0.3,0-0.5,0.1-0.8,0.1c-0.7,0-1.3-0.1-1.9-0.3c-0.6-0.2-1.2-0.7-1.6-1.4c0.2-0.5,0.5-0.9,0.8-1c0.3-0.1,0.8-0.3,1.2-0.6
		c0.1,0,0.4-0.2,0.9-0.5c0.5-0.3,0.8-0.4,0.9-0.4h0.9c0.1,0,0.2,0,0.4-0.1c0.2-0.1,0.3-0.1,0.3-0.1c0.1,0,0.3-0.1,0.7-0.2
		c0.3-0.1,0.7-0.1,1.1-0.2s0.7-0.1,1.1-0.2c0.3-0.1,0.6-0.1,0.7-0.1c0.7-0.5,1.2-1.1,1.3-1.7c0.2-0.6,0.4-1.3,0.6-2.2v-7.7
		c0-0.1,0-0.4,0.1-0.9c0.1-0.4,0.2-0.7,0.2-0.9v-11.5c0-1.8,0.1-3.3,0.1-4.5c0-1.2,0.1-2.1,0.1-2.8c0-0.7,0-1.2,0.1-1.6
		c0-0.4,0-0.7,0-0.9c0-0.5,0-1.1,0-1.7c0-0.6,0-1,0-1.1c0.1-1.4,0.2-2.6,0.4-3.8c0.2-1.2,0.3-2.4,0.3-3.8c0-1.2,0-2.2-0.1-3.1
		s-0.4-1.8-0.8-2.8c-0.2-0.2-0.6-0.5-1.2-0.8c-0.6-0.3-1.1-0.4-1.3-0.5c-0.1,0-0.3-0.1-0.5-0.1c-0.2,0-0.5,0-0.8-0.1
		c-0.3,0-0.6,0-0.8-0.1c-0.3,0-0.4-0.1-0.5-0.1c0,0-0.2,0-0.5-0.1c-0.3-0.1-0.4-0.1-0.5-0.2h-1.5c-0.4,0-0.7,0-0.8,0
		c-0.1,0-0.4-0.1-0.7-0.3c-0.4-0.1-0.7-0.4-1.1-0.6c-0.3-0.3-0.5-0.5-0.5-0.8v-0.5c0.3-0.6,0.7-1,1.1-1.1c0.5-0.1,0.9-0.2,1.4-0.2
		c0.2,0,0.4,0,0.6,0c0.1,0,0.3,0,0.5,0c0.2,0,0.4,0,0.7-0.1c0.2-0.1,0.4-0.2,0.6-0.3h0.4h0.4c0.1,0,0.5,0.1,0.9,0.1
		c0.5,0,1,0.1,1.5,0.2c0.5,0.1,1,0.1,1.5,0.2c0.5,0,0.8,0.1,0.9,0.1c0.3,0,0.8,0.1,1.7,0.2c0.8,0.1,1.7,0.1,2.6,0.2
		c0.9,0.1,1.8,0.1,2.6,0.2c0.8,0,1.4,0.1,1.7,0.1c1.3-0.3,2.6-0.5,3.9-0.6c1.3,0,2.6-0.1,3.8-0.1h3.6c0.3,0.2,0.5,0.5,0.5,0.9
		c0.1,0.3,0.1,0.7,0.1,1c0,0.4-0.1,0.8-0.3,1c-0.2,0.2-0.5,0.4-0.8,0.5c-0.3,0.1-0.7,0.2-1,0.2c-0.4,0-0.7,0.1-1.1,0.1
		c-0.2,0-0.5,0-1,0.1c-0.5,0.1-0.8,0.2-1,0.3c0,0-0.2,0.1-0.6,0.3c-0.3,0.2-0.6,0.3-0.7,0.4c0,0-0.3,0-0.6,0.1s-0.6,0.2-0.7,0.3
		c0,0-0.2,0-0.5,0.1c-0.1,0-0.3,0.1-0.4,0.1c-0.2,0.1-0.4,0.4-0.7,0.7c-0.3,0.3-0.5,0.5-0.6,0.6c0,0.1,0,0.4-0.1,0.9
		c-0.1,0.5-0.1,0.8-0.1,1c0,0.3,0,0.9,0,1.8c0,0.8,0,1.7-0.1,2.7c0,0.9,0,1.8,0,2.7c0,0.8,0,1.4,0,1.8l-0.1,1v6.5
		c0,2.1-0.1,3.7-0.1,4.9c0,1.2-0.1,2.2-0.1,2.8c0,0.7-0.1,1.1-0.1,1.4c0,0.2,0,0.5,0,0.7c-0.1,0.7-0.1,1.4-0.1,2.1
		c0,0.7,0,1.4-0.1,2.1c0,0.1-0.1,0.4-0.2,0.8s-0.1,0.7-0.1,0.8c0,0.1,0,0.5,0,1c0,0.5,0.1,1,0.1,1.6c0,0.6,0.1,1.1,0.1,1.6
		c0,0.5,0,0.8,0,1s0,0.4,0,0.9c0,0.4-0.1,0.9-0.1,1.4c0,0.5-0.1,1-0.1,1.5c0,0.5,0,0.8,0,0.8v1.9c0,0.4,0,0.9,0,1.4
		c0,0.5,0.1,0.9,0.2,1.4c0.1,0.4,0.3,0.8,0.5,1.2c0.2,0.3,0.6,0.6,1.1,0.7c0,0,0.2,0,0.5,0c0.3,0,0.6,0.1,0.9,0.1
		c0.3,0,0.6,0.1,0.9,0.1c0.3,0,0.5,0,0.6,0c0.1,0,0.4,0.1,0.8,0.2c0.4,0.1,0.7,0.2,1.1,0.4c0.4,0.1,0.8,0.3,1.2,0.4
		c0.4,0.1,0.7,0.2,0.8,0.3c0.2,0.1,0.3,0.2,0.3,0.4c0,0.1,0,0.3,0,0.4c0,0.8-0.3,1.4-1,1.8c-0.7,0.4-1.3,0.7-1.9,1h-0.4
		c-0.2,0-0.7-0.1-1.5-0.2c-0.8-0.1-1.7-0.3-2.7-0.4s-1.8-0.3-2.7-0.4c-0.8-0.1-1.3-0.2-1.5-0.2c0,0-0.1-0.1-0.4-0.1
		c-0.3,0-0.6,0-0.9,0c-0.3,0-0.7,0-1.1,0C280.8,174.7,280.6,174.7,280.4,174.7z" fill="currentColor"></path> <path d="M379.9,175.2c-0.5-0.2-0.8-0.4-1-0.6c-0.2-0.1-0.3-0.5-0.3-1c0-0.5,0.3-1,0.9-1.3c0.6-0.3,1.1-0.5,1.6-0.6
		c0.6-0.1,1.3-0.2,2.1-0.3s1.6-0.1,2.4-0.1c0.2,0,0.5,0,0.7,0c0.2,0,0.4,0,0.6,0c0.3-0.2,0.6-0.6,0.8-0.9s0.4-0.7,0.5-1.1v-3.6v-3.5
		c0-0.8-0.2-1.7-0.4-2.5c-0.2-0.9-0.3-1.7-0.3-2.5c0-0.3,0-0.5,0-0.7c0-0.2,0.1-0.4,0.3-0.7v-9.1c-0.1-0.6-0.3-1.3-0.4-2
		c-0.1-0.7-0.2-1.3-0.2-2c0-1,0-1.9,0.1-2.9c0.1-0.9,0.2-1.8,0.5-2.7v-14.7c-0.1-0.4-0.2-0.9-0.3-1.5c0-0.6-0.1-1.1-0.1-1.7
		c0-0.3,0-0.6,0-0.9s0-0.6,0.1-0.8c-0.1-0.1-0.5-0.2-1.1-0.4c-0.6-0.2-1-0.3-1.1-0.3c-0.1,0-0.2,0-0.3,0c-0.1,0-0.3,0-0.5,0
		c-0.5,0-1,0-1.5,0c-0.5,0-0.8,0-0.9,0c-0.5,0-1.2-0.2-1.9-0.5c-0.7-0.3-1.1-0.7-1.1-1.3c0-0.5,0.2-0.9,0.7-1.2
		c0.5-0.3,0.9-0.5,1.2-0.6c0.7,0,1.5-0.1,2.5-0.1c1.1,0,1.9,0,2.5,0c1,0,2.1,0,3.2,0c1.1,0,2,0.1,2.8,0.3c0.4-0.3,0.9-0.5,1.5-0.6
		c0.6,0,1.1-0.1,1.7-0.1c0.2,0,0.8,0,1.6,0c0.8,0,1.7,0,2.5,0c0.4,0,0.7,0,1,0c0.3,0,0.5,0,0.6,0c0.1,0,0.3,0,0.6-0.1
		c0.3,0,0.7-0.1,1-0.2s0.7-0.1,1.1-0.2c0.3-0.1,0.6-0.1,0.7-0.1c0.1,0,0.3,0,0.6,0c0.3,0,0.5,0.1,0.6,0.2h3.1c0.7,0,1.3,0,2,0
		c0.7,0,1.1,0.1,1.3,0.1c0.1,0,0.5,0,1.2,0.1c0.6,0,1.1,0.1,1.3,0.1c1.8,0.3,3.5,0.7,5.2,1.1c1.7,0.4,3.3,1.1,4.8,2.1
		c0,0,0.2,0.2,0.3,0.3c0.2,0.2,0.3,0.4,0.5,0.6c0.2,0.2,0.3,0.4,0.5,0.5c0.2,0.1,0.3,0.2,0.3,0.2c0.5,0.5,1,0.8,1.5,0.8
		c0.5,0,1.1,0.2,1.6,0.5c0.9,0.6,1.8,1.4,2.7,2.5c0.9,1.1,1.7,2.2,2.5,3.5c0.8,1.3,1.4,2.5,2,3.8c0.6,1.3,1,2.4,1.2,3.4
		c0,0.1,0.1,0.3,0.1,0.7c0,0.4,0.1,0.8,0.2,1.2c0.1,0.4,0.1,0.9,0.2,1.3c0.1,0.4,0.1,0.6,0.1,0.7c0,0.1,0.2,0.4,0.3,0.8
		c0.2,0.4,0.3,0.7,0.3,0.8c0,0,0.1,0.3,0.1,0.7c0,0.4,0,0.7,0,1c0,2.8-0.2,5.4-0.6,8.1c-0.4,2.6-0.9,5.3-1.7,7.9
		c-0.7,2.4-1.8,4.5-3.3,6.4c-1.6,1.9-3.2,3.6-5,5.2c0,0-0.2,0.2-0.4,0.4c-0.2,0.2-0.4,0.4-0.6,0.6s-0.4,0.4-0.6,0.6
		c-0.2,0.2-0.3,0.3-0.4,0.3c0,0.1-0.2,0.2-0.5,0.3c-0.3,0.1-0.7,0.3-1,0.4s-0.7,0.3-1,0.4c-0.3,0.1-0.5,0.2-0.6,0.2
		c-1.1,0.5-2.1,1.1-3.2,1.6c-1,0.5-2.1,1-3.2,1.4c-0.7,0.2-1.3,0.4-1.9,0.4c-0.6,0-1.3,0.1-2,0.2c0,0-0.1,0-0.3,0.1
		c-0.1,0.1-0.2,0.2-0.3,0.2c-0.2,0.1-0.6,0.2-0.9,0.4c-0.4,0.1-0.6,0.2-0.7,0.2h-2c0,0-0.2,0-0.4,0c-0.2,0-0.4,0.1-0.7,0.1
		c-0.2,0-0.5,0.1-0.7,0.1c-0.2,0-0.4,0-0.4,0c0,0-0.2,0-0.5,0c-0.3,0-0.5,0-0.6,0c-1.9,0-3.8-0.1-5.7-0.2c-1.9-0.1-3.8-0.2-5.6-0.2
		h-1.9c-0.1,0-0.3,0-0.7,0.1c-0.4,0.1-0.6,0.1-0.6,0.1h-0.1h-0.3c-0.1,0-0.3,0-0.7,0c-0.4,0-0.8-0.1-1.2-0.1c-0.4,0-0.8-0.1-1.2-0.1
		c-0.4,0-0.6,0-0.7,0h-0.1h-0.1c-0.3,0.1-0.8,0.2-1.3,0.4c-0.5,0.2-1,0.3-1.3,0.3h-0.4c-0.1,0-0.4,0-0.7-0.1c-0.3,0-0.7-0.1-1.1-0.1
		c-0.4,0-0.7-0.1-1-0.1C380.3,175.2,380.1,175.2,379.9,175.2z M396,159.9c0,0.1,0,0.4,0.1,0.8c0.1,0.5,0.1,0.8,0.1,0.8v0.7
		c0,0.2,0,0.6,0,1c0,0.4,0.1,0.8,0.1,1.2c0,0.4,0.1,0.8,0.1,1.1c0,0.3,0.1,0.5,0.1,0.6c0,0.1,0,0.2,0.1,0.4c0.1,0.2,0.1,0.4,0.1,0.6
		v1.9c0.1,0.9,0.4,1.6,0.8,2.1c0.5,0.5,1,0.9,1.6,1.1c0.6,0.2,1.3,0.4,2,0.4c0.7,0,1.4,0.1,2,0.1c0.2,0,0.7,0,1.2,0
		c0.6,0,1.1,0,1.3-0.1c0.2-0.5,0.6-0.8,1.2-0.9c0.6-0.1,1.1-0.2,1.6-0.3c0.2,0,0.6-0.1,1-0.2c0.4-0.1,0.8-0.1,1.2-0.2
		c0.4-0.1,0.9-0.2,1.5-0.3c0,0,0.2-0.2,0.6-0.4c0.3-0.2,0.7-0.5,1.1-0.7c0.4-0.3,0.8-0.5,1.2-0.7c0.4-0.2,0.6-0.4,0.7-0.5
		c0.1,0,0.4-0.2,0.9-0.4c0.5-0.2,0.8-0.4,1-0.4c0-0.1,0.2-0.2,0.4-0.3c0.2-0.1,0.4-0.1,0.5-0.1c0.2-0.1,0.5-0.5,0.9-1
		c0.3-0.5,0.6-0.8,0.7-1c0.1,0,0.2,0,0.4-0.1c0.2-0.1,0.3-0.1,0.4-0.1c0.8-0.8,1.5-1.7,2.3-2.7c0.7-1,1.4-1.9,1.9-2.9
		c0.3-0.5,0.6-1.1,0.7-1.6c0.1-0.5,0.3-1.1,0.6-1.6c0-0.1,0.1-0.2,0.1-0.4c0-0.1,0.1-0.2,0.1-0.2c0.1-0.2,0.2-0.6,0.4-1
		c0.2-0.4,0.3-0.7,0.3-0.8c0,0,0-0.2,0.1-0.4c0.1-0.2,0.1-0.5,0.2-0.7c0-0.2,0.1-0.5,0.1-0.7c0-0.2,0.1-0.4,0.1-0.4
		c0.2-0.7,0.5-1.5,0.9-2.4c0.3-0.8,0.5-1.7,0.5-2.5v-0.4c0-0.1,0-0.4-0.1-0.8c-0.1-0.4-0.1-0.7-0.1-0.8V142c0-0.1,0-0.4-0.1-0.8
		c-0.1-0.5-0.1-0.8-0.1-1c0-0.1-0.1-0.3-0.2-0.6c-0.1-0.3-0.1-0.4-0.1-0.5c-0.1-0.7-0.2-1.4-0.3-2s-0.2-1.3-0.4-2
		c-0.5-1.6-1.2-3.2-2-4.8c-0.8-1.6-1.8-3-2.8-4.3c0,0-0.1-0.2-0.3-0.4c-0.2-0.2-0.4-0.4-0.6-0.6c-0.2-0.2-0.4-0.4-0.6-0.6
		c-0.2-0.2-0.3-0.3-0.3-0.4c-0.1,0-0.3-0.3-0.5-0.8c-0.2-0.5-0.4-0.7-0.5-0.8c0-0.1-0.2-0.2-0.5-0.4c-0.3-0.1-0.5-0.2-0.5-0.3
		c-0.6-0.5-1.3-1-2-1.4c-0.7-0.4-1.4-0.8-2.1-1.3c-0.1,0-0.3-0.1-0.5-0.1c-0.2,0-0.3-0.1-0.3-0.1c0,0-0.2,0-0.4-0.1
		c-0.2-0.1-0.4-0.1-0.7-0.2c-0.2-0.1-0.5-0.1-0.7-0.2s-0.4-0.1-0.4-0.2c-0.1,0-0.3-0.1-0.7-0.4c-0.4-0.3-0.6-0.4-0.6-0.5
		c-0.8-0.5-1.7-0.9-2.5-1c-0.9-0.1-1.8-0.2-2.7-0.2H404c-0.6-0.1-1.2-0.2-1.7-0.4c-0.6-0.2-1.2-0.3-1.9-0.3c-0.7,0-1.3,0.3-2,1
		c-0.7,0.7-1,1.3-1.1,1.9c0,0.2-0.1,0.5-0.2,0.8c-0.1,0.3-0.1,0.7-0.2,1.1c0,0.4-0.1,0.7-0.1,1c0,0.3-0.1,0.5-0.1,0.5
		c0,0.1-0.1,0.5-0.1,1c0,0.5-0.1,1-0.1,1.6c0,0.6-0.1,1.1-0.1,1.6c0,0.5,0,0.8,0,1c0,0.1,0,0.3-0.1,0.7c-0.1,0.4-0.1,0.6-0.2,0.7
		v1.1v1.1c0,0,0.1,0.3,0.2,0.6c0.1,0.4,0.1,0.6,0.1,0.6c0,0.4,0.1,0.9,0.2,1.6c0.1,0.7,0.1,1.4,0.2,2.1c0.1,0.7,0.1,1.3,0.2,1.9
		c0,0.5,0.1,0.9,0.1,1c0,0.2,0,0.7-0.1,1.2c0,0.6-0.1,0.9-0.1,1.1v15.9c0,0.1-0.1,0.6-0.2,1.2c-0.1,0.7-0.2,1.1-0.3,1.4
		c0,0.1,0,0.3-0.1,0.5C396,159.7,396,159.8,396,159.9z" fill="currentColor"></path> <path d="M521,142.3c0-0.2,0.1-0.6,0.1-1.2c0-0.5,0.1-1.1,0.1-1.8c0.1-1,0.3-2,0.4-2.9c0,0,0.1-0.1,0.1-0.1
		c0,0,0.1-0.1,0.1-0.1c0,0,0-0.2,0.1-0.5c0.1-0.3,0.2-0.6,0.3-0.9c0.1-0.3,0.2-0.7,0.3-0.9c0.1-0.3,0.2-0.4,0.2-0.5
		c0.2-0.7,0.5-1.3,0.8-1.7c0.3-0.5,0.6-0.9,0.8-1.4c0.1-0.2,0.3-0.5,0.4-0.7c0.1-0.2,0.3-0.5,0.5-0.8c0.2-0.2,0.4-0.6,0.5-1.1
		c0.1-0.4,0.3-0.8,0.5-1.1c0.2-0.4,0.5-0.7,0.9-1.1c0.4-0.2,0.8-0.5,0.9-0.8c0.2-0.3,0.4-0.6,0.7-0.9c0.1-0.1,0.3-0.3,0.5-0.6
		c0.2-0.2,0.6-0.7,1.2-1.3c0.2-0.2,0.4-0.4,0.5-0.6c0.2-0.2,0.4-0.4,0.5-0.5c0.1,0,0.2-0.1,0.3-0.2c0.1-0.1,0.2-0.1,0.3-0.2l0.3-0.1
		c0.1,0,0.2-0.1,0.4-0.3c0.1-0.1,0.2-0.2,0.4-0.4c0.2-0.2,0.4-0.4,0.6-0.7c0.1-0.1,0.3-0.2,0.7-0.4c0.4-0.2,1-0.5,1.9-1
		c0,0,0.1-0.2,0.4-0.3c0.3-0.2,0.6-0.4,0.9-0.6c0.6-0.3,1.3-0.6,1.9-0.7c0.1,0,0.3-0.1,0.7-0.3c0.4-0.2,0.7-0.3,0.9-0.5
		c0,0,0.1,0,0.1,0c0,0,0.2,0,0.5-0.1h0.9l1.4-0.2c1.2-0.2,2.4-0.4,3.5-0.5s2.3-0.2,3.4-0.2h0.4c0.6,0,1.3,0,2.1,0
		c0.8,0,1.4,0.1,2,0.3c0,0,0.2,0,0.5,0.1c0.3,0.1,0.5,0.2,0.6,0.2c0,0,0.2,0,0.5,0.1c0.3,0,0.5,0.1,0.8,0.1c0.3,0,0.6,0.1,0.8,0.1
		c0.3,0,0.4,0.1,0.5,0.1c0,0,0.4,0.2,1.1,0.4l1,0.5c0.1,0,0.2,0.1,0.2,0.1c0.1,0,0.2,0,0.3,0.1c0.3,0.1,0.5,0.1,0.5,0.1
		c0.2,0.1,0.5,0.3,0.9,0.5c0.4,0.2,0.9,0.5,1.3,0.7c0.5,0.3,1,0.5,1.4,0.7c0.5,0.2,0.8,0.4,1.1,0.5c0.1,0.1,0.3,0.1,0.6,0.1
		c0.3,0,0.6-0.2,0.8-0.7c0.1-0.4,0.3-0.7,0.5-1.1c0.2-0.3,0.4-0.6,0.5-0.9c0.2-0.2,0.3-0.4,0.4-0.4c0.1,0,0.3-0.1,0.7-0.1
		c0.4,0,0.8,0.2,1.1,0.5c0.3,0.3,0.5,0.8,0.6,1.2c0.1,0.5,0.2,1,0.3,1.5c0,0.5,0.1,0.9,0.1,1.2c0,1.4-0.1,2.9-0.2,4.4
		c0,0.6-0.1,1.3-0.1,2c0,0.7,0,1.3,0,2v1c0,0.1-0.1,0.2-0.2,0.4c-0.1,0.2-0.2,0.4-0.5,0.6c-0.2,0.2-0.4,0.4-0.5,0.5
		c-0.1,0.1-0.4,0.2-0.7,0.2s-0.6-0.1-1-0.2s-0.7-0.4-0.8-0.7c-0.5-1-0.9-2-1.4-2.9c-0.4-0.9-0.9-1.7-1.5-2.6
		c-0.5-0.8-1.1-1.6-1.7-2.4c-0.6-0.8-1.4-1.6-2.2-2.4c-0.8-0.7-1.7-1.2-2.8-1.6c-1-0.4-2.1-0.7-3.1-1l-0.4-0.2
		c-0.7-0.1-1.3-0.2-1.7-0.3c-0.5,0-1.1,0-1.7,0c-1.4,0-2.8,0.3-4.2,0.9c-1.4,0.6-2.7,1.3-4,2c-0.1,0.2-0.4,0.4-0.7,0.5
		c-0.3,0.1-0.6,0.3-0.9,0.4c-0.3,0.2-0.5,0.3-0.7,0.4c-0.2,0.1-0.3,0.2-0.4,0.3l-1.3,1.3c-0.4,0.6-0.7,0.9-0.9,1
		c-0.1,0-0.2,0-0.2,0.1c0,0-0.1,0.1-0.2,0.1c-0.2,0.1-0.3,0.2-0.3,0.2c0,0-0.1,0-0.1,0c-0.3,0.3-0.6,0.8-0.9,1.3
		c-0.3,0.5-0.6,1-0.9,1.4c0,0-0.2,0.3-0.4,0.8c-0.3,0.5-0.7,1.2-1.2,1.9c-0.4,0.7-0.8,1.3-0.9,1.6c-0.6,1.1-1.1,2.4-1.4,3.8
		c-0.4,1.4-0.7,2.8-0.9,4.2c-0.2,1.5-0.4,2.9-0.4,4.3c-0.1,1.4-0.1,2.7-0.1,3.9c0,1.6,0.1,3.1,0.2,4.6c0.1,1.5,0.5,3,1,4.5
		c0.1,0,0.2,0.3,0.4,0.7c0.2,0.4,0.3,0.7,0.3,0.8c0.1,0.4,0.3,0.8,0.4,1.1c0.1,0.3,0.2,0.7,0.3,1c0.3,0.9,0.7,1.8,1.1,2.6
		c0.5,0.9,1.1,1.9,2,2.8c0.8,0.9,1.7,1.8,2.8,2.6c1,0.8,2.1,1.5,3.2,2.1c1.1,0.6,2.1,1,3.1,1.3c0.1,0,0.3,0,0.6,0c0.3,0,0.6,0,1,0
		h1.5c0.2,0,0.6,0,1.2,0c0.5,0,1,0,1.4,0h0.7c0,0,0.2,0,0.5-0.1c0.3-0.1,0.7-0.2,1.1-0.4s0.8-0.3,1.2-0.4c0.4-0.1,0.7-0.3,1-0.4
		c0.8-0.3,1.5-0.9,2.1-1.8c0.6-0.8,0.9-1.7,0.9-2.6v-7.6c0-0.1,0-0.5,0.1-1.3c0.1-0.7,0.2-1.4,0.3-2.1c0-0.7,0.1-1.3,0.1-1.8
		c0-0.5,0.1-0.9,0.1-1v-2.4c0-0.6-0.1-1.1-0.2-1.4c-0.1,0-0.4-0.2-0.8-0.4c-0.5-0.2-0.9-0.4-1.3-0.6c-0.1,0-0.2-0.1-0.2-0.1
		c0,0-0.1,0-0.2-0.1c-0.5-0.1-1.1-0.2-1.8-0.2c-0.4,0-0.9-0.1-1.3-0.1c-0.4,0-0.8-0.1-1.2-0.2c-0.4-0.1-0.7-0.3-0.9-0.4
		c-0.2-0.2-0.3-0.4-0.3-0.8c0-0.1,0-0.2,0-0.2c0,0,0-0.1,0-0.2l0.2-0.6c0.1-0.1,0.2-0.2,0.4-0.4c0.2-0.2,0.3-0.3,0.4-0.4h6.1
		c0,0,0.2,0,0.3,0c0.2,0,0.4-0.1,0.6-0.1c0.2,0,0.4-0.1,0.6-0.1c0.2,0,0.3,0,0.4,0h0.4c0,0,0.2,0,0.5,0.1c0.3,0.1,0.5,0.1,0.7,0.1
		h2.5l1.2,0.1c0.4,0,0.8,0.1,1.2,0.1c0.4,0,0.6,0.1,0.7,0.1c0.2,0,0.7,0.1,1.4,0.1c0.7,0,1.4,0,2.1,0c0.8,0,1.5,0,2.1,0
		c0.7,0,1.1,0,1.4-0.1c0.4,0,0.9,0.3,1.5,0.7c0.6,0.4,0.9,0.9,0.9,1.4l-0.4,0.5c-0.1,0-0.3,0.1-0.5,0.3c-0.2,0.1-0.4,0.2-0.4,0.3
		c-0.2,0-0.5,0.1-0.9,0.1c-0.4,0-0.8,0.1-1.3,0.1c-0.4,0-0.7,0.1-1.1,0.1c-0.3,0-0.5,0-0.7,0c-0.7,0.1-1.3,0.2-1.7,0.4
		c-0.4,0.1-0.7,0.6-0.9,1.4c-0.2,1.4-0.4,2.8-0.4,4.1c0,1.4-0.1,2.8-0.1,4.1c0,0.5,0,1.1,0,1.7c0,0.5,0,1.1-0.1,1.6
		c0,0.1-0.1,0.4-0.1,0.8c0,0.5-0.1,1-0.1,1.5c0,0.5,0,1-0.1,1.4c0,0.4,0,0.7,0,0.8c0,0.1,0,0.3,0,0.6c0,0.2,0.1,0.5,0.1,0.7
		c0.1,0.2,0.2,0.5,0.3,0.6c0.1,0.2,0.3,0.3,0.5,0.3c0.2,0,0.5,0,0.7-0.1c0.2,0,0.4-0.1,0.7-0.2c0.2,0,0.5-0.1,0.7-0.2
		s0.5-0.1,0.9-0.1c0.4,0,0.7,0.1,0.8,0.3c0.1,0.2,0.1,0.5,0.1,0.8c0,0.7-0.4,1.3-1.1,1.9c-0.7,0.6-1.4,1-2,1.2c0,0-0.1,0.1-0.2,0.1
		c-0.1,0-0.2,0-0.2,0c0,0-0.1,0-0.2,0c-0.2,0-0.4,0.1-0.5,0.1c-0.2,0-0.3,0.1-0.3,0.1c-0.2,0.1-0.5,0.2-0.8,0.3
		c-0.3,0.1-0.6,0.2-0.9,0.3c-0.2,0.1-0.5,0.2-0.7,0.3c-0.2,0.1-0.5,0.2-0.7,0.3c-0.1,0-0.3,0-0.6,0.1c-0.3,0.1-0.5,0.1-0.5,0.2
		c-2.4,0.5-4.9,0.9-7.4,1.3s-5.1,0.6-7.7,0.6c0,0-0.1-0.1-0.2-0.1c-0.2-0.1-0.3-0.2-0.4-0.2c-0.1,0-0.3,0-0.5,0c-0.2,0-0.5,0-0.7,0
		c-0.3,0-0.6-0.1-0.8-0.1c-0.3,0-0.4,0-0.5,0c-0.3,0-0.7-0.1-1.3-0.2c-0.6-0.1-1.1-0.2-1.7-0.4c-0.6-0.1-1.2-0.2-1.7-0.3
		c-0.5-0.1-0.8-0.1-0.9-0.2c-0.5-0.1-1.1-0.3-1.7-0.7c-0.6-0.3-1.2-0.7-1.8-1c-0.2-0.1-0.5-0.3-0.8-0.4c-0.3-0.1-0.5-0.3-0.8-0.5
		c-0.7-0.2-1.4-0.5-2-0.8s-1.2-0.8-1.9-1.5c-0.1-0.1-0.4-0.4-0.7-0.7c-0.3-0.3-0.7-0.6-1-1s-0.7-0.7-1.1-1.1c-0.4-0.4-0.7-0.7-1-1
		l-0.7-0.6c0.1,0,0-0.1-0.3-0.4c-0.3-0.3-0.4-0.5-0.5-0.8c-0.1-0.1-0.1-0.3-0.1-0.4c0-0.1,0-0.2-0.1-0.2c0,0-0.1-0.2-0.2-0.6
		c-0.1-0.3-0.2-0.5-0.3-0.6c0,0-0.1-0.1-0.3-0.3c-0.1-0.1-0.3-0.3-0.4-0.5c-0.2-0.2-0.3-0.4-0.4-0.6c-0.1-0.1-0.2-0.3-0.2-0.4
		c-1.1-2.3-1.9-4.6-2.4-6.9c-0.5-2.3-0.7-4.8-0.7-7.3V142.3z" fill="currentColor"></path> <path d="M691.1,174.6c-0.2,0-0.6,0-1.1,0c-0.5,0-0.8,0-0.8,0l-1,0.4l-5.2-0.3h-11c-0.4-0.1-0.8-0.2-1.1-0.3
		c-0.3,0-0.6-0.1-1-0.1c-0.3,0-0.5,0-0.7,0c-0.2,0-0.4,0.1-0.7,0.3c-0.3,0-0.8,0-1.4,0c-0.7,0-1.3,0-2.1,0s-1.4,0-2.1,0
		c-0.7,0-1.1,0-1.3,0c-0.1,0-0.2,0-0.4,0c-0.2,0-0.4,0-0.7,0.1c-0.2,0-0.5,0-0.7,0.1c-0.2,0-0.4,0-0.4,0c-0.1,0-0.2,0.1-0.3,0.1
		h-0.4c-0.8,0-1.3-0.1-1.7-0.2s-0.7-0.6-1-1.4c-0.1,0-0.1,0-0.1-0.1v-0.1c0-0.4,0.3-0.9,0.8-1.5c0.5-0.5,1-0.8,1.5-0.8h4
		c0,0,0.2-0.2,0.5-0.5c0.3-0.3,0.6-0.6,0.8-0.8c0,0,0.1-0.2,0.2-0.3c0.1-0.2,0.1-0.3,0.1-0.4c0.3-1.7,0.5-3.3,0.6-5
		c0-1.7,0.1-3.4,0.1-5.2c0-0.2,0-0.8,0-1.8c0-1,0.1-2,0.1-3.1c0-1.1,0.1-2.1,0.1-3.1c0-1,0-1.6,0-1.8v-2.3c0-2.3,0-4.5-0.1-6.7
		c-0.1-2.2-0.1-4.4-0.1-6.6V133c0-0.1,0-0.3,0-0.7c0-0.3,0.1-0.7,0.1-1.1c0-0.4,0.1-0.8,0.1-1.1c0-0.3,0-0.5,0-0.6
		c0-0.2,0-0.7,0-1.3c0-0.6,0.1-1.3,0.1-2c0-0.7,0.1-1.4,0.1-2c0-0.6,0-1.1,0-1.3c-0.1-0.4-0.2-0.9-0.3-1.4c0-0.5-0.1-0.9-0.1-1.4
		c-0.1-0.4-0.2-0.9-0.3-1.3c-0.1-0.4-0.4-0.7-0.8-1c-0.1,0-0.4,0-0.9,0c-0.4,0-0.9-0.1-1.3-0.1c-0.5,0-0.9-0.1-1.3-0.1
		c-0.4,0-0.7,0-0.8,0c-0.4,0-0.9-0.1-1.5-0.2c-0.5-0.1-1-0.3-1.5-0.5c-0.5-0.2-0.8-0.5-1.1-0.9c-0.3-0.4-0.4-0.8-0.4-1.4
		c0,0,0.1,0,0.1-0.1c0.1-0.1,0.2-0.1,0.3-0.1c0.7-0.4,1.3-0.7,1.8-0.8c0.5-0.1,1.2-0.2,2-0.2h0.2c0.1,0.1,0.2,0.2,0.3,0.2l0.3,0.1
		c1.4,0.1,2.8,0.2,4.2,0.2c1.4,0,2.8,0.1,4.2,0.1c1.2,0,2.3,0,3.4,0c1.1,0,2.2,0,3.3,0h9.3c0.1,0,0.3,0,0.5,0c0.3,0,0.5,0,0.8-0.1
		c0.3,0,0.6,0,0.8-0.1c0.3,0,0.5,0,0.6,0h0.3h0.3c0,0,0.2,0,0.5,0c0.3,0,0.7,0,1,0.1c0.4,0,0.7,0,1,0.1c0.3,0,0.5,0,0.6,0h5
		c0.2,0,0.6,0.1,1,0.1c0.4,0,0.9,0,1.3,0.1c0.4,0,0.8,0,1.1,0.1c0.3,0,0.5,0.1,0.5,0.1c0.1,0,0.4,0.1,1,0.4c0.6,0.3,1,0.6,1.3,0.8
		c0.3,0.2,0.5,0.6,0.7,1.2c0.2,0.6,0.3,1.3,0.4,2.1c0.1,0.8,0.2,1.5,0.3,2.3s0.1,1.3,0.2,1.7c0,0.1,0,0.4,0.1,0.7
		c0,0.3,0.1,0.7,0.1,1.1c0,0.4,0,0.8,0.1,1.1c0,0.3,0,0.6,0,0.7v1.2v1.2c-0.1,0.2-0.3,0.4-0.5,0.5c-0.2,0.1-0.5,0.1-0.7,0.1h-0.3
		c-0.6-0.4-1-0.8-1-1.2c0-0.4-0.2-0.9-0.6-1.4c0-0.1-0.2-0.3-0.5-0.5c-0.3-0.2-0.4-0.4-0.5-0.5c-0.4-0.5-0.8-1.2-1.1-1.9
		s-0.8-1.4-1.3-2.1c0,0-0.1-0.1-0.3-0.3s-0.2-0.3-0.3-0.4c0,0-0.2-0.1-0.3-0.1c-0.2,0-0.3-0.1-0.3-0.1c-0.3-0.2-0.6-0.5-0.8-0.8
		c-0.2-0.3-0.4-0.5-0.6-0.8c-0.2-0.3-0.4-0.5-0.7-0.8c-0.3-0.2-0.6-0.5-1.1-0.7c-0.2,0-0.7,0-1.3-0.1c-0.6,0-1.3-0.1-2-0.1
		c-0.7,0-1.4-0.1-2-0.1c-0.6,0-1.1-0.1-1.3-0.1h-2.2c0,0-0.2,0-0.4-0.1c-0.2,0-0.4-0.1-0.7-0.1c-0.3,0-0.5-0.1-0.7-0.1
		c-0.2,0-0.4-0.1-0.4-0.1h-0.7h-0.6c-0.1,0-0.3,0-0.7,0.1c-0.4,0-0.8,0.1-1.2,0.1c-0.4,0-0.8,0.1-1.2,0.1c-0.4,0-0.6,0.1-0.7,0.1
		h-2.5c-0.1,0-0.2,0-0.4,0.1c-0.1,0.1-0.2,0.1-0.2,0.2v5.3c0,0.9-0.2,1.7-0.4,2.6c-0.2,0.8-0.3,1.7-0.3,2.5c0,1.3,0.1,2.6,0.2,3.9
		c0.1,1.3,0.2,2.6,0.2,3.9c0,0.9-0.1,1.8-0.2,2.8c-0.1,1-0.2,1.9-0.2,2.9v0.3c0.1,0.1,0.2,0.2,0.4,0.4c0.1,0.1,0.3,0.2,0.4,0.2h1
		h1.1c0,0,0.2,0,0.4-0.1c0.2,0,0.4-0.1,0.6-0.1c0.2,0,0.4-0.1,0.6-0.1c0.2,0,0.3-0.1,0.4-0.1h3.7c0.2,0,0.6,0,1.1,0
		c0.5,0,1.1,0,1.6-0.1c0.6,0,1.1,0,1.6-0.1c0.5,0,0.9,0,1.1,0c0.4-0.4,0.8-0.9,0.9-1.7c0.2-0.7,0.4-1.3,0.6-1.8c0-0.1,0-0.3,0.1-0.6
		c0-0.3,0.1-0.7,0.2-1c0.1-0.4,0.1-0.7,0.2-1c0-0.3,0.1-0.5,0.1-0.6c0-0.1,0.2-0.3,0.3-0.6c0.2-0.3,0.3-0.5,0.4-0.6
		c0.1-0.4,0.2-0.8,0.2-1.2c0-0.4,0.1-0.8,0.2-1.2c0.1-0.4,0.3-0.7,0.5-0.9c0.3-0.2,0.7-0.3,1.2-0.3c0.6,0,1,0.1,1.2,0.4
		c0.2,0.3,0.3,0.8,0.3,1.4c0,0.2,0,0.4,0,0.5c0,0.1-0.1,0.3-0.2,0.6c0,0,0,0.1,0,0.2c0,0.1,0,0.2,0,0.4c0,0.2,0,0.5,0,0.6
		c0,0.2,0,0.3,0,0.4c0,0.2,0,0.9-0.1,1.9c-0.1,1-0.2,2.1-0.3,3.3c-0.1,1.2-0.2,2.3-0.3,3.3c-0.1,1-0.1,1.7-0.2,2c0,0,0,0.3,0,0.8
		c0,0.5,0,0.9,0,1.4c0,0.2,0,0.5-0.1,0.7c0,0.2-0.1,0.4-0.1,0.5c0,0-0.1,0.3-0.2,0.7s-0.2,0.7-0.2,0.8c0,0.1,0,0.3,0,0.6
		c0,0.3,0.1,0.7,0.1,1c0,0.3,0.1,0.7,0.1,1c0,0.3,0,0.5,0,0.6c0,0.2,0,0.6,0,1.1c0,0.5,0,0.9,0,1.1c0,0.5,0,0.9-0.1,1.3
		c-0.1,0.4-0.3,0.8-0.6,1.3c0,0.1-0.2,0.2-0.4,0.4c-0.2,0.2-0.4,0.3-0.5,0.3c0,0-0.2-0.1-0.4-0.3c-0.2-0.2-0.4-0.3-0.5-0.4
		c-0.7-0.6-1.1-1.5-1.2-2.8c-0.1-1.3-0.2-2.5-0.2-3.8c0-1.3-0.2-2.4-0.4-3.5c-0.2-1.1-0.8-1.7-1.7-1.8c-0.2,0-0.6,0.1-1.1,0.1
		c-0.5,0-1,0-1.5,0c-0.6,0-1.1,0-1.7,0c-0.5,0-0.8,0-1-0.1c-0.1,0-0.4,0-0.7,0c-0.3,0-0.6,0-0.9-0.1c-0.3,0-0.6,0-0.9-0.1
		c-0.3,0-0.5,0-0.6,0c0-0.1-0.2-0.2-0.4-0.3c-0.2-0.1-0.3-0.1-0.4-0.1h-0.4c-0.7,0-1.4,0.2-2.1,0.5c-0.7,0.3-1.1,0.9-1.2,1.7
		c0,0.2,0,0.6-0.1,1.1c-0.1,0.6-0.2,1.2-0.3,1.9c-0.1,0.7-0.2,1.4-0.3,2c-0.1,0.7-0.1,1.1-0.1,1.4v0.2v0.3c0,0.2,0,0.6,0,1.1
		c0,0.5,0,1.1,0.1,1.7c0,0.6,0.1,1.1,0.1,1.7c0,0.5,0.1,0.9,0.1,1.1c0.1,0.2,0.2,0.4,0.3,0.5c0,0.1,0,0.2,0,0.4
		c0,1.1-0.1,2.2-0.2,3.3c-0.1,1.1-0.2,2.2-0.2,3.3c0,0.1,0,0.3,0,0.7c0,0.4,0,0.6,0,0.7c0,0.1,0.2,0.3,0.6,0.6
		c0.3,0.3,0.6,0.5,0.7,0.6c0.1,0.1,0.5,0.2,1.2,0.2c0.7,0,1.3,0.1,1.6,0.2c0.3,0,0.9,0,1.7,0c0.8,0,1.7,0,2.7,0.1
		c0.9,0,1.8,0,2.7,0.1c0.8,0,1.4,0,1.7,0c0.3,0.1,0.7,0.2,1,0.3c0.3,0,0.7,0.1,1,0.1h1.2h1.9c0.1,0,0.4-0.1,0.9-0.2
		c0.5-0.1,0.8-0.2,0.9-0.2h8c0.6-0.2,1.2-0.6,1.7-1.3c0.5-0.7,0.9-1.3,1.2-1.8c0,0,0.2-0.2,0.3-0.6c0.2-0.3,0.3-0.7,0.5-1
		c0.2-0.4,0.3-0.7,0.4-1c0.1-0.3,0.2-0.5,0.3-0.6c0-0.1,0.2-0.3,0.4-0.5c0.2-0.2,0.3-0.4,0.3-0.4c0-0.1,0.1-0.3,0.2-0.5
		c0.1-0.2,0.1-0.4,0.1-0.4c0.1-0.1,0.3-0.3,0.7-0.7c0.3-0.4,0.5-0.6,0.6-0.7c0,0,0.2-0.3,0.4-0.8c0.2-0.5,0.4-0.8,0.4-0.9
		c0-0.1,0.2-0.3,0.5-0.5c0.3-0.2,0.4-0.4,0.5-0.5c0.1-0.1,0.2-0.2,0.4-0.3c0.1,0,0.2-0.1,0.2-0.1c0.1,0.1,0.3,0.3,0.5,0.5
		s0.4,0.4,0.5,0.5v0.2c0,0.3,0,0.7-0.1,1c-0.1,0.3-0.1,0.6-0.1,1c0,0.4,0,0.7,0.1,1c0.1,0.3,0.1,0.6,0.1,1v0.4c0,0.1,0,0.3-0.1,0.5
		c-0.1,0.2-0.1,0.4-0.1,0.5v5c0,0.3,0,0.8-0.1,1.3c-0.1,0.5-0.2,1-0.4,1.5c-0.2,0.5-0.4,0.9-0.7,1.2c-0.3,0.3-0.7,0.5-1.2,0.5h-0.2
		c-0.2,0-0.5-0.1-1-0.2c-0.5-0.1-0.7-0.1-0.8-0.1l-0.3-0.1c-0.1,0-0.2-0.1-0.2-0.2h-0.2h-0.2c-1,0.3-1.9,0.5-2.8,0.5
		c-0.9,0-1.8,0-2.8,0.1c-0.1,0-0.3,0-0.5,0c-0.2,0-0.5,0.1-0.7,0.1c-0.3,0-0.5,0.1-0.7,0.1c-0.2,0-0.4,0.1-0.4,0.1h-0.2
		c-0.5,0-1-0.1-1.5-0.2s-0.9-0.2-1.5-0.2c0,0-0.2,0-0.4,0c-0.2,0-0.5,0-0.8,0c-0.3,0-0.6,0-0.9,0
		C691.6,174.6,691.3,174.6,691.1,174.6z" fill="currentColor"></path> <path d="M790.4,173.4c0-0.1,0-0.2,0.1-0.3c0,0,0.1-0.1,0.1-0.2c0-0.1,0.2-0.3,0.5-0.6c0.3-0.2,0.5-0.4,0.6-0.5
		c0.1,0,0.4,0,0.8-0.1c0.4,0,0.8-0.1,1.2-0.1c0.4,0,0.8-0.1,1.1-0.2c0.3-0.1,0.6-0.1,0.7-0.1c0.9-0.1,1.8-0.2,2.7-0.2
		c0.8,0,1.5-0.5,2.1-1.4v-2.3c0-1.3,0-2.7,0.1-4c0.1-1.3,0.2-2.7,0.4-4.1c0.1-0.1,0.2-0.3,0.3-0.5c0-0.2,0-0.4,0-0.6v-0.4
		c0,0,0-0.2,0-0.4c0-0.2-0.1-0.4-0.1-0.6c0-0.2-0.1-0.4-0.1-0.6c0-0.2,0-0.3,0-0.3v-3.6v-3.7c0.1-0.1,0.2-0.2,0.2-0.4
		c0-0.2,0.1-0.3,0.1-0.4c0-0.1,0-0.4-0.1-0.7c0-0.3-0.1-0.5-0.2-0.6v-7.2v-7c0-0.1,0-0.5,0-1.1c0-0.6,0.1-1.2,0.1-1.8
		c0-0.6,0.1-1.2,0.1-1.8c0-0.5,0-0.9,0-1c0-0.1,0-0.4-0.1-0.8c-0.1-0.4-0.1-0.7-0.1-0.8c0-0.2,0-0.4,0-0.6c0-0.2,0-0.4,0-0.6
		c0-0.2,0-0.5,0-0.7c0-0.2,0-0.5,0-0.7c0-0.7-0.1-1.4-0.3-2.1c-0.2-0.6-0.7-1.2-1.4-1.8h-3.1c-0.1,0-0.3,0-0.5,0
		c-0.3,0-0.5,0-0.8-0.1c-0.3,0-0.6-0.1-0.8-0.1c-0.2,0-0.4-0.1-0.6-0.1c-0.5-0.1-1-0.2-1.6-0.3c-0.6-0.1-0.9-0.5-0.9-1.1
		c0-0.5,0.3-0.9,0.9-1.1c0.6-0.2,1.2-0.3,1.6-0.3h3.1c0.3,0,0.7,0,1.3-0.1c0.6,0,1.2-0.1,1.8-0.1c0.6,0,1.2-0.1,1.7-0.1
		c0.5,0,0.9-0.1,1-0.1c0,0,0.2-0.1,0.6-0.1c0.3,0,0.5,0,0.6,0c0.1,0,0.3,0,0.7,0c0.4,0,0.6,0.1,0.7,0.1c0.2,0.1,0.5,0.2,0.8,0.2
		c0.4,0,0.6,0,0.6,0c0.1,0,0.3,0,0.5-0.1c0.2-0.1,0.4-0.1,0.4-0.1c0.1,0,0.4-0.1,0.8-0.1c0.4,0,0.8-0.1,0.9-0.1c0.9,0,1.7,0,2.4,0.1
		c0.8,0,1.6,0.1,2.6,0.1c0.4,0,0.8,0,1.3,0.1c0.5,0,0.8,0.1,0.9,0.1c0,0,0.2,0,0.5,0c0.3,0,0.5,0,0.5,0h0.3c0.1,0,0.2,0,0.3,0
		c0.1,0,0.2,0,0.3,0c0.1,0,0.2,0,0.4,0c0.2,0,0.3,0,0.4,0c0.2,0,0.6,0.1,1.1,0.2c0.5,0.1,1.1,0.1,1.7,0.2s1.1,0.1,1.6,0.2
		s0.8,0.1,1,0.1c1.5,0.2,2.8,0.7,3.9,1.3c1.1,0.6,2.2,1.5,3.3,2.4c0.3,0.3,0.7,0.8,1.1,1.4c0.4,0.7,0.7,1.4,1.1,2.1
		c0.3,0.8,0.6,1.5,0.8,2.3c0.2,0.8,0.3,1.4,0.3,1.8v0.8c-0.1,1.5-0.3,3.1-0.4,4.6c-0.1,1.6-0.4,3.1-0.9,4.5c0,0-0.2,0.1-0.3,0.4
		c-0.2,0.2-0.3,0.4-0.4,0.5c-0.8,1.1-1.5,2.2-2.2,3.1c-0.7,0.9-1.6,1.7-2.8,2.4c-0.1,0.1-0.4,0.2-0.8,0.4c-0.4,0.2-0.8,0.4-1.2,0.6
		c-0.4,0.2-0.7,0.4-1,0.6c-0.3,0.2-0.4,0.3-0.4,0.4v0.1c1.5,1.3,2.7,2.7,3.7,4.2c1,1.5,2,3.1,3.2,4.6c0,0,0.1,0.2,0.3,0.3
		c0.2,0.2,0.3,0.3,0.4,0.3c0.1,0.2,0.3,0.5,0.7,1s0.5,0.7,0.6,0.7c0,0.1,0.2,0.4,0.5,0.8c0.3,0.4,0.5,0.9,0.8,1.4
		c0.3,0.5,0.5,1,0.8,1.4c0.2,0.4,0.4,0.7,0.4,0.8c0.4,0.7,0.8,1.3,1.3,1.7s1,1,1.5,1.5c0.3,0.5,0.6,1,0.8,1.5c0.2,0.5,0.4,1,0.7,1.4
		c0.4,0.7,0.9,1.3,1.5,1.9c0.6,0.6,1.2,1.1,1.9,1.7c0.2,0.2,0.7,0.4,1.5,0.4c0.8,0,1.5,0.1,2.3,0.1c0.8,0.1,1.5,0.2,2.1,0.5
		c0.6,0.3,0.9,0.8,0.9,1.5c0,0.4-0.2,0.9-0.5,1.3s-0.8,0.6-1.3,0.6c-1.4,0-2.7-0.1-4.1-0.3c-1.4-0.2-2.8-0.3-4.2-0.3h-0.6
		c-0.1,0-0.3,0-0.6,0c-0.3,0-0.7,0-1.1,0.1c-0.4,0-0.8,0-1.1,0.1c-0.3,0-0.6,0-0.7,0c-0.2,0-0.7,0.1-1.4,0.1c-0.7,0-1.5,0.1-2.3,0.1
		c-0.8,0-1.6,0.1-2.3,0.1c-0.7,0-1.2,0.1-1.3,0.1c-0.1,0-0.4,0.1-0.8,0.2c-0.4,0.1-0.7,0.2-0.8,0.2h-1.5c-0.5,0-1-0.2-1.4-0.5
		c-0.4-0.3-0.6-0.8-0.6-1.5c0-0.2,0-0.6,0.1-1.1c0.1-0.5,0.4-0.7,0.8-0.7h5.7c0.1,0,0.2-0.1,0.2-0.4c0-0.2,0.1-0.4,0.1-0.5
		c0-0.7-0.2-1.3-0.7-1.8c-0.5-0.5-0.9-1.1-1.3-1.6c-0.4-0.6-0.8-1.3-1.1-1.9c-0.3-0.6-0.7-1.3-1.2-2c-0.5-0.9-1.1-1.8-1.8-2.7
		c-0.7-0.9-1.3-1.8-1.9-2.8c0,0-0.2-0.2-0.4-0.6c-0.2-0.3-0.4-0.7-0.6-1c-0.2-0.4-0.4-0.7-0.6-1c-0.2-0.3-0.3-0.5-0.4-0.6
		c-0.2-0.2-0.5-0.6-0.9-1.1c-0.4-0.6-0.9-1.1-1.4-1.7c-0.5-0.6-0.9-1.1-1.4-1.7c-0.4-0.5-0.8-0.9-0.9-1.1c0-0.1-0.1-0.2-0.2-0.4
		c-0.1-0.1-0.2-0.2-0.3-0.3c-0.5-0.7-1.1-1.3-1.7-1.8c-0.6-0.5-1.4-0.8-2.4-0.8h-0.5c-0.1,0.2-0.3,0.7-0.6,1.2
		c-0.3,0.6-0.5,0.9-0.6,1.1v0.2c0,0.5,0.1,0.9,0.2,1.3c0.1,0.4,0.2,0.8,0.2,1.4c0,0.4,0,0.9,0,1.3c0,0.4-0.1,0.9-0.3,1.5v14.4
		c0,0.8,0.1,1.6,0.4,2.2c0.3,0.7,0.9,1,1.8,1c0.7,0,1.4,0,2.1-0.1c0.7-0.1,1.4-0.1,2.1-0.1c0.4,0,0.8,0.1,1.1,0.4s0.5,0.7,0.5,1.2
		c0,0.5-0.1,1-0.3,1.5c-0.2,0.4-0.6,0.7-1.3,0.7c-0.1,0-0.4,0-0.9-0.1c-0.5-0.1-0.8-0.2-0.9-0.3h-1.3c-0.6,0-1.1,0.1-1.7,0.2
		c-0.5,0.1-1.1,0.2-1.7,0.2c-0.9,0-1.7-0.1-2.6-0.2c-0.9-0.1-1.7-0.2-2.6-0.2c-0.5,0-1.1,0.1-1.6,0.2c-0.5,0.1-1.1,0.2-1.6,0.2h-0.4
		c-0.1,0-0.5,0-1,0c-0.5,0-1.1,0-1.6-0.1c-0.6,0-1.1-0.1-1.6-0.1c-0.5,0-0.8-0.1-1-0.1c-0.1,0-0.4,0-0.9,0c-0.5,0-1,0-1.5,0
		c-0.6,0-0.9,0-1-0.1c0,0-0.2,0-0.5-0.1c-0.3,0-0.5-0.1-0.7-0.1c-0.2-0.1-0.4-0.2-0.4-0.4C790.4,173.8,790.4,173.6,790.4,173.4z
		 M809.1,139.5c0,0.2,0.2,0.7,0.3,1.5c0.2,0.7,0.3,1.2,0.4,1.5c0.1,0.3,0.3,0.6,0.5,1c0.2,0.4,0.6,0.6,0.9,0.6c0.6,0,1.2,0,2-0.1
		s1.5-0.2,2.2-0.4c0.7-0.2,1.4-0.4,2.1-0.7c0.7-0.3,1.2-0.6,1.7-1c0.1,0,0.4-0.3,0.8-0.8c0.4-0.5,0.7-0.7,0.8-0.7
		c0.1-0.1,0.3-0.2,0.7-0.4c0.4-0.2,0.6-0.3,0.7-0.3c0.1,0,0.2-0.1,0.2-0.2c0.2-0.3,0.6-0.8,1.1-1.5c0.5-0.6,0.8-1,0.8-1
		c0.5-0.8,0.8-1.7,0.9-2.6c0.1-0.9,0.3-1.8,0.6-2.6c0.1-0.1,0.2-0.3,0.3-0.5c0.1-0.2,0.2-0.5,0.2-0.9c0-0.1,0-0.3-0.1-0.7
		c-0.1-0.4-0.1-0.6-0.1-0.7c-0.1-0.9-0.3-1.8-0.4-2.6c-0.1-0.9-0.4-1.7-0.8-2.5c0-0.1-0.2-0.3-0.3-0.6c-0.2-0.3-0.4-0.6-0.5-0.9
		c-0.2-0.3-0.4-0.6-0.6-0.9c-0.2-0.3-0.3-0.5-0.4-0.7c-0.1,0-0.2-0.1-0.4-0.3c0,0-0.1,0-0.2-0.1l-0.3-0.1c-0.7-0.4-1.3-0.8-1.7-1
		c-0.4-0.2-0.9-0.4-1.7-0.7c-1.1-0.3-2-0.7-2.9-0.9c-0.9-0.3-1.8-0.4-2.8-0.4c-0.4,0-0.8,0-1.3,0c-0.5,0-0.8,0.1-1.1,0.3
		c-0.1,0.1-0.4,0.4-0.7,0.8c-0.3,0.4-0.5,0.7-0.6,0.8c0,0.1-0.1,0.4-0.1,0.7c0,0.3-0.1,0.7-0.1,1.1c0,0.4,0,0.8-0.1,1.1
		c0,0.3,0,0.6,0,0.7v8.4V139.5z" fill="currentColor"></path> <path d="M928.9,171.6v-1c0,0,0-0.2,0.1-0.3c0-0.2,0.1-0.4,0.2-0.6c0.1-0.2,0.1-0.4,0.2-0.6c0.1-0.2,0.1-0.3,0.1-0.4
		c0-0.1,0-0.4,0.1-0.8c0-0.4,0.1-0.9,0.1-1.4c0-0.5,0.1-1,0.1-1.5c0-0.5,0.1-0.9,0.1-1.1V156c0-0.1,0-0.4,0.1-0.7
		c0-0.3,0.1-0.6,0.2-0.9c0.1-0.3,0.2-0.5,0.4-0.7c0.1-0.2,0.3-0.3,0.6-0.3c0.5,0,0.9,0.1,1.1,0.4c0.3,0.2,0.5,0.6,0.6,0.9
		s0.3,0.8,0.3,1.2c0.1,0.4,0.1,0.8,0.2,1.1c0.9,4.3,3,8,6.5,11.1c0.1,0.1,0.3,0.3,0.5,0.5c0.2,0.2,0.4,0.4,0.7,0.6
		c0.2,0.2,0.5,0.5,0.9,0.7c0.1,0.1,0.4,0.2,0.8,0.3c0.4,0.1,0.8,0.3,1.2,0.4c0.4,0.1,0.8,0.3,1.2,0.4c0.4,0.1,0.7,0.2,0.8,0.2
		c0.1,0,0.3,0,0.7,0c0.3,0,0.7,0,1.1,0c0.4,0,0.8,0,1.1,0.1c0.3,0,0.6,0,0.7,0c0,0,0.2,0,0.5,0.1c0.3,0,0.5,0.1,0.5,0.1h0.5
		c0.4,0,0.7-0.1,1.1-0.2c0.3-0.1,0.7-0.3,1.1-0.4c0.4-0.1,0.8-0.2,1.1-0.2c0.4,0,0.7-0.2,1.1-0.4c1-0.7,1.9-1.3,2.7-1.9
		c0.8-0.6,1.5-1.5,1.9-2.7c0,0,0-0.2,0-0.3c0-0.2,0-0.4,0.1-0.6c0-0.2,0-0.4,0.1-0.6c0-0.2,0-0.3,0-0.4c0,0,0.1-0.2,0.2-0.4
		c0.1-0.2,0.2-0.4,0.4-0.6c0.1-0.2,0.2-0.4,0.3-0.6c0.1-0.2,0.1-0.3,0.1-0.3c0,0,0-0.3,0-0.7c0-0.4,0-0.7,0-1c0-2-0.6-3.8-1.7-5.4
		c-1.1-1.6-2.5-2.8-4.2-3.8c0,0-0.3-0.1-0.6-0.1c-0.4,0-0.6-0.1-0.6-0.1c-0.1,0-0.3-0.1-0.6-0.3c-0.3-0.1-0.7-0.3-1-0.5
		c-0.4-0.2-0.7-0.4-1-0.5c-0.3-0.1-0.5-0.2-0.6-0.3c0,0-0.4-0.2-0.9-0.3c-0.6-0.2-0.9-0.3-1-0.3c-0.1-0.1-0.4-0.2-0.9-0.4
		c-0.5-0.2-0.8-0.3-1-0.4c-0.2,0-0.5-0.1-0.8-0.1c-0.3,0-0.5,0-0.5,0c-1.6-0.4-3.2-0.9-5-1.6c-1.8-0.7-3.3-1.4-4.6-2.3
		c-0.1-0.1-0.3-0.3-0.7-0.7c-0.3-0.4-0.6-0.6-0.7-0.7c0,0-0.2,0-0.4-0.1c-0.2-0.1-0.3-0.1-0.3-0.2c-0.1,0-0.2,0-0.2-0.1
		c0-0.1-0.1-0.1-0.2-0.1c0,0-0.1-0.2-0.2-0.4s-0.3-0.5-0.4-0.7c-0.1-0.3-0.3-0.5-0.4-0.7c-0.1-0.2-0.2-0.4-0.2-0.4
		c-0.4-0.7-0.9-1.5-1.4-2.2c-0.5-0.7-0.9-1.5-1.1-2.4c-0.2-0.9-0.4-1.8-0.5-2.8c-0.1-1-0.2-2-0.2-2.8c0-0.6,0-1.3,0-2.1
		c0-0.7,0.1-1.4,0.3-2c0-0.1,0.2-0.3,0.4-0.5c0.2-0.2,0.3-0.4,0.3-0.5c0.1-0.1,0.3-0.4,0.5-0.8c0.2-0.4,0.4-0.7,0.5-0.7
		c1.1-2,2.5-3.7,4-5.1c1.6-1.4,3.5-2.5,5.6-3.1c0,0,0.2,0,0.4-0.1c0.2-0.1,0.4-0.1,0.5-0.1c0.1,0,0.3-0.1,0.7-0.2
		c0.3-0.1,0.5-0.1,0.6-0.1c0,0,0.2,0,0.4,0c0.2,0,0.5,0,0.8,0c0.3,0,0.7,0,1,0c0.3,0,0.6,0,0.8,0c0.1,0,0.3,0,0.5,0
		c0.3,0,0.5,0,0.8,0.1c0.3,0,0.6,0,0.8,0.1c0.3,0,0.5,0,0.6,0c0.2,0.1,0.4,0.2,0.7,0.2c0.3,0,0.4,0.1,0.5,0.1c0.5,0,0.9,0,1.2,0
		c0.3,0,0.7,0.1,1.1,0.1s0.8,0.2,1.2,0.4c0.4,0.2,1,0.4,1.7,0.7c0.7,0.3,1.3,0.7,1.9,1c0.6,0.3,1,0.5,1.3,0.6c0.1,0,0.3,0.2,0.5,0.3
		c0.3,0.2,0.4,0.3,0.4,0.4h0.6c0.6,0,1.1-0.2,1.4-0.7c0.3-0.5,0.7-0.9,1.1-1.3c0-0.1,0.2-0.3,0.4-0.5c0.2-0.2,0.4-0.5,0.6-0.7
		c0.2-0.2,0.4-0.5,0.7-0.7c0.2-0.2,0.4-0.4,0.5-0.5h0.4c0.3,0,0.6,0.1,0.7,0.4c0.1,0.3,0.2,0.6,0.3,0.9c0,0,0,0.2,0,0.5
		c0,0.3,0,0.6,0.1,0.9c0,0.3,0.1,0.7,0.1,1c0,0.3,0.1,0.6,0.1,0.8v0.3v0.1c-0.1,0.6-0.2,1.4-0.3,2.5c-0.1,1.1-0.2,2.2-0.3,3.2
		c-0.1,1.1-0.2,2-0.3,2.9c-0.1,0.8-0.1,1.3-0.2,1.5c-0.1,0.7-0.3,1.4-0.6,2c-0.3,0.6-0.9,0.9-1.7,0.9c-0.2,0-0.5,0-0.8,0
		c-0.3,0-0.6-0.1-0.7-0.3c-0.3-0.4-0.6-0.9-0.8-1.4c-0.2-0.5-0.4-0.9-0.6-1.4c-0.2-0.5-0.4-1-0.6-1.4c-0.2-0.5-0.5-0.9-0.8-1.4
		c-0.8-1-1.6-2-2.5-3.1s-1.8-2-2.9-2.8c-0.1,0-0.3-0.1-0.7-0.2c-0.3-0.1-0.6-0.2-0.7-0.3c-0.1-0.1-0.4-0.3-0.8-0.7
		c-0.4-0.4-0.7-0.6-0.9-0.6c0-0.1-0.2-0.2-0.7-0.2c-0.5,0-0.8-0.1-1.1-0.1c-0.3,0-0.8-0.1-1.5-0.2c-0.7-0.1-1.2-0.1-1.5-0.2h-0.4
		c-1.6,0-3,0.3-4.1,1c-1.1,0.7-2.1,1.6-3,2.9c-0.4,0.5-0.7,1-1,1.3c-0.3,0.3-0.5,0.6-0.7,0.9s-0.3,0.6-0.4,1
		c-0.1,0.4-0.1,0.9-0.1,1.5c0,0.4,0,0.7,0.1,0.9c0,0.2,0,0.4,0.1,0.5c0,0.1,0.1,0.4,0.3,0.8c0.2,0.4,0.4,0.8,0.6,1.2
		c0.2,0.4,0.4,0.8,0.7,1.2c0.2,0.4,0.4,0.7,0.5,0.8c0,0,0.1,0.2,0.3,0.3c0.2,0.2,0.3,0.4,0.5,0.6c0.2,0.2,0.4,0.4,0.5,0.6
		c0.2,0.2,0.3,0.3,0.4,0.4c1.1,1,2.3,1.9,3.7,2.5c1.3,0.6,2.7,1.2,4.1,1.6c1.4,0.4,2.8,0.8,4.2,1.2c1.4,0.3,2.8,0.8,4.1,1.3
		c0.2,0.4,0.6,0.6,0.9,0.6c0.4,0,0.8,0.1,1.2,0.3c0.5,0.3,1.2,0.8,2,1.2c0.8,0.5,1.5,0.9,2.1,1.4c0.1,0.1,0.4,0.3,0.8,0.7
		c0.4,0.4,0.7,0.7,0.8,0.8c0,0.1,0.1,0.3,0.3,0.5c0.2,0.2,0.3,0.4,0.4,0.4c0.6,0.7,1.3,1.5,2,2.1c0.7,0.7,1.2,1.5,1.6,2.5
		c0,0.2,0.1,0.5,0.3,0.8c0.1,0.3,0.2,0.6,0.3,0.9c0.1,0.3,0.3,0.7,0.4,1.1c0.1,0.6,0.2,1.2,0.2,1.7c0,0.6,0.1,1.1,0.1,1.7
		c0,0.7,0,1.5-0.1,2.2c0,0.7-0.1,1.5-0.2,2.2c-0.5,1.2-1,2.3-1.4,3.3c-0.4,1-0.9,2-1.5,3.2c-0.1,0-0.2,0.1-0.3,0.2
		c-0.1,0.1-0.2,0.2-0.3,0.2c-0.9,0.8-1.6,1.5-2.1,2.1c-0.6,0.6-1.4,1.3-2.4,2.1c-0.9,0.6-1.9,1.2-3,1.6c-1.1,0.4-2.2,0.8-3.3,1.1
		c-0.5,0.1-1,0.1-1.3,0.1c-0.3,0-0.8,0.1-1.2,0.4c-0.1,0-0.4,0-0.7,0c-0.3,0-0.6,0-0.9,0c-0.3,0-0.7,0-0.9,0c-0.3,0-0.5,0-0.6,0
		c-1.3,0-2.6,0-3.9-0.1c-1.3,0-2.6-0.2-3.9-0.5c-0.5-0.2-1.1-0.4-1.7-0.5s-1.2-0.3-1.9-0.6l-0.3-0.1l-0.3-0.1c0,0-0.3,0-0.7-0.1
		c-0.4-0.1-0.7-0.1-0.9-0.1h-0.1h-0.3c-0.1,0-0.3,0.2-0.7,0.3c-0.4,0.2-0.7,0.4-1.1,0.6c-0.4,0.2-0.8,0.4-1.2,0.6
		c-0.4,0.2-0.7,0.3-0.8,0.3c-0.1,0.1-0.3,0.2-0.5,0.2c-0.3,0-0.4,0.1-0.5,0.1c-0.1,0-0.2-0.2-0.3-0.5c-0.1-0.3-0.1-0.7-0.2-1.1
		c0-0.4-0.1-0.8-0.1-1.2C929,172,928.9,171.7,928.9,171.6z" fill="currentColor"></path></g></svg>